<?xml version="1.0" encoding="UTF-8"?>
<svg xmlns="http://www.w3.org/2000/svg" xmlns:xlink="http://www.w3.org/1999/xlink" viewBox="0 0 512 512" width="512" height="512"><defs><linearGradient id="linear-gradient" x1="85.382" y1="432.698" x2="390.62" y2="127.461" gradientUnits="userSpaceOnUse"><stop offset="0" stop-color="#41dfd0"/><stop offset="1" stop-color="#ee83ef"/></linearGradient></defs><g id="gradient"><path d="M419.774,264.947a8,8,0,0,0-8.212.4l-72,48a8,8,0,0,0,.553,13.649l10.657,5.922-24,24.659a18.672,18.672,0,0,1-32-11.686L289.148,272H328a48,48,0,0,0,0-96H282.305c-.421-7.994-.786-15.979-1.092-24H296a24,24,0,0,0,5.5-47.357,56,56,0,1,0-101.389-36A63.99,63.99,0,0,0,224,192h4.8c-.491,7.551-6.428,86.233-6.428,86.233a101.661,101.661,0,0,0-38.357,78.1l-22.791-23.416,10.657-5.922a8,8,0,0,0,.553-13.649l-72-48A8,8,0,0,0,88,272v88a8,8,0,0,0,11.885,6.993l14.156-7.865,11.487,14.04q17.587,21.5,36.78,41.634a85.675,85.675,0,0,1-16.514,14.388l-30.232,20.154a8,8,0,1,0,8.876,13.312L154.669,442.5a101.6,101.6,0,0,0,18.815-16.2A742.611,742.611,0,0,0,244.257,489l6.831,5.313a8,8,0,0,0,9.824,0l6.83-5.313a743.123,743.123,0,0,0,118.73-115.833l11.487-14.04,14.156,7.865A8,8,0,0,0,424,360V272A8,8,0,0,0,419.774,264.947ZM233.186,347.079l4.589-60.344A85.917,85.917,0,0,1,248,280.8v93.19a27.577,27.577,0,0,1-44.068,4.828,34.707,34.707,0,0,0,29.254-31.738Zm35.69-130.664.283,3.716L264,224V212l4.313-3.235Q268.588,212.58,268.876,216.415ZM264,244l6.6-4.948,1.361,17.893q-4.031.55-7.958,1.413Zm9.174,28.936.589,7.742L264,288V274.815A85.323,85.323,0,0,1,273.174,272.936ZM264,340l13.5-10.128.863,11.353L264,352Zm12.066-29.034c-.067.047-.137.088-.2.138L264,320V308l11.2-8.4ZM264,372l17.716-13.288a34.226,34.226,0,0,0,5.247,8.327l-17.84,13.38A27.6,27.6,0,0,1,264,373.99Zm36.639,4.782a34.978,34.978,0,0,0,7.429,2.035,27.09,27.09,0,0,1-21.887,8.808ZM328,192a32,32,0,0,1,0,64H287.932s-4.226-56.322-4.705-64Zm-60.949-2.288L264,192V152h1.2C265.678,164.6,266.289,177.111,267.051,189.712ZM304,128a8.009,8.009,0,0,1-8,8H216a8,8,0,0,1,0-16h80A8.009,8.009,0,0,1,304,128ZM233.382,80a24,24,0,0,0,1.843,4.007A23.842,23.842,0,0,0,232,96v7.829a40.078,40.078,0,0,1-15.049-23.307A48.2,48.2,0,0,1,224,80ZM248,96a8,8,0,0,1,16,0v8H248Zm15.884-22.663a23.915,23.915,0,0,0-15.76,0A7.9,7.9,0,0,1,248,72a8,8,0,1,1,15.884,1.337ZM256,32a39.995,39.995,0,0,1,24,71.992V96a23.84,23.84,0,0,0-3.228-12,23.994,23.994,0,1,0-43.4-20H224a64.425,64.425,0,0,0-7.271.425A40.06,40.06,0,0,1,256,32ZM224,176a47.988,47.988,0,0,1-22.322-90.475,55.68,55.68,0,0,0,8.931,19.093A24,24,0,0,0,216,152h14.958q-.49,11.767-1.182,24Zm22.97-24H248V263.281q-4.481,1.8-8.745,4S246.132,172.305,246.97,152ZM220.556,302.171l-3.326,43.718a18.67,18.67,0,0,1-17.375,17.291c.095-1.8.145-3.592.145-5.38A85.4,85.4,0,0,1,220.556,302.171Zm-82.645,60.866-15.72-19.214a8,8,0,0,0-10.076-1.927L104,346.4V286.948l48.646,32.43-8.331,4.629a8,8,0,0,0-1.847,12.573l48.574,51.833A43.627,43.627,0,0,0,248,396.6v74.977A727.277,727.277,0,0,1,137.911,363.037ZM408,346.4l-8.115-4.508a8,8,0,0,0-10.076,1.927l-15.72,19.214A727.131,727.131,0,0,1,264,471.573v-75a43.563,43.563,0,0,0,56.958-8.161l48.574-51.833a8,8,0,0,0-1.847-12.573l-8.331-4.629L408,286.948Z" style="fill:url(#linear-gradient)"/></g></svg>
