<svg height="512" viewBox="0 0 512 512" width="512" xmlns="http://www.w3.org/2000/svg" xmlns:xlink="http://www.w3.org/1999/xlink"><linearGradient id="linear-gradient" gradientUnits="userSpaceOnUse" x1="109.478" x2="388.543" y1="431.654" y2="152.589"><stop offset="0" stop-color="#41dfd0"/><stop offset="1" stop-color="#ee83ef"/></linearGradient><g id="gradient"><path d="m136 366.862a8 8 0 0 1 -8 8h-72a8 8 0 0 1 0-16h72a8 8 0 0 1 8 8zm40 8a8 8 0 1 0 0-16h-16a8 8 0 0 0 0 16zm120-16h-88a8 8 0 0 0 0 16h88a8 8 0 0 0 0-16zm176 16a8 8 0 0 0 0-16h-56a8 8 0 0 0 0 16zm-368 24a8 8 0 0 0 8 8h120a8 8 0 1 0 0-16h-120a8 8 0 0 0 -8 8zm152 0a8 8 0 0 0 8 8h72a8 8 0 0 0 0-16h-72a8 8 0 0 0 -8 8zm104 0a8 8 0 0 0 8 8h64a8 8 0 0 0 0-16h-64a8 8 0 0 0 -8 8zm136-64a8 8 0 0 1 -8 8h-81.3a21.88 21.88 0 0 1 -5.177 8.186l-11.1 11.057a7.989 7.989 0 0 1 -6.423 12.757h-6.389l-1.595 1.589a21.86 21.86 0 0 1 -15.523 6.411h-.048a21.857 21.857 0 0 1 -15.542-6.475l-1.518-1.525h-15.385a7.995 7.995 0 0 1 -.523-15.973l-15.96-16.027h-287.517a8 8 0 0 1 0-16h12.686l-10.343-10.342a8 8 0 0 1 -2.343-5.658v-32a8 8 0 0 1 3.2-6.4l32-24a8 8 0 0 1 4.8-1.6h174.5l-109.476-109.926a24 24 0 0 1 .076-33.936 24.025 24.025 0 0 1 33.941.071l143.2 143.8h83.873l46.311-23.155a8 8 0 0 1 7.694.3s42.881 26.995 42.925 27.074c.11.2.956 51.772.956 51.772a8 8 0 0 1 -4.031 6.947l-29.844 17.053h33.875a8 8 0 0 1 8 8zm-173.829-72 2.863 2.875 25.9 5.236a8.009 8.009 0 0 1 4.084 2.2l21.6 21.693h21.164l66.667-40-24.8-14.881-44.071 22.037a8.007 8.007 0 0 1 -3.578.844zm-181.81-137.217 146.773 147.383 11.337-11.29-146.771-147.383a7.948 7.948 0 0 0 -5.652-2.355h-.018a8 8 0 0 0 -5.669 13.645zm50.729 137.217a21.872 21.872 0 0 0 33.82 0zm-88 0a21.872 21.872 0 0 0 33.82 0zm-63.09 20v12h246.3l-31.867-32h-10.152l-4.75 7.125a37.9 37.9 0 0 1 -63.062 0l-4.75-7.125h-15.438l-4.75 7.125a37.9 37.9 0 0 1 -63.062 0l-4.75-7.125h-17.052zm19.313 44h237.239a8.044 8.044 0 0 1 -.4-1.334l-2.9-14.666h-249.939zm332.687 8.611a5.961 5.961 0 0 0 -1.748-4.246l-44.863-45.051-25.9-5.236a8 8 0 0 1 -4.084-2.2l-5.644-5.668-11.337 11.29 5.645 5.668a8 8 0 0 1 2.179 4.093l5.128 25.92 44.864 45.057a5.965 5.965 0 0 0 4.239 1.766h.012a5.959 5.959 0 0 0 4.234-1.749l7.085-7.056-39.51-39.683a8 8 0 1 1 11.338-11.291l39.515 39.68 7.085-7.056a5.965 5.965 0 0 0 1.762-4.238zm29.875-8.611 50.125-28.642v-29.228l-67.884 40.731a8.008 8.008 0 0 1 -4.116 1.139h-7.447l9.036 9.074a21.963 21.963 0 0 1 4.663 6.926z" fill="url(#linear-gradient)"/></g></svg>