<svg height="512" viewBox="0 0 512 512" width="512" xmlns="http://www.w3.org/2000/svg" xmlns:xlink="http://www.w3.org/1999/xlink"><linearGradient id="linear-gradient" gradientUnits="userSpaceOnUse" x1="134.615" x2="426.746" y1="455.2" y2="163.069"><stop offset="0" stop-color="#41dfd0"/><stop offset="1" stop-color="#ee83ef"/></linearGradient><g id="gradient"><path d="m495.572 340.586a8 8 0 0 0 -8.518-7.446 56.932 56.932 0 0 1 -31.728-7.155l-3.52-1.972a8.03 8.03 0 0 0 -7.835.008 64.771 64.771 0 0 1 -24.994 7.878 122.561 122.561 0 0 0 58.461-69.757l2.78-8.539c.029-.09.044-.182.07-.273.019-.063.045-.111.062-.179l6.4-24.474a8 8 0 0 0 -8.266-10.008l-95.784 6.315a8 8 0 0 0 -7.214 5.958l-4.943 18.9-6.589.435-57.525-57.609a8 8 0 0 0 -6.187-2.33l-15.966 1.053-1.052-15.965 7.983-.527a8 8 0 0 0 -1.053-15.965l-7.983.526-.526-7.982a8 8 0 0 0 -15.965 1.052l.526 7.983-7.983.527a8 8 0 0 0 .519 15.983q.266 0 .534-.018l7.983-.527 1.053 15.966-25.387 1.674-8.908-33.055a8 8 0 0 0 -15.449 4.163l8.075 29.965-70.089 4.621a8 8 0 0 0 .518 15.983c.177 0 .355-.006.535-.018l7.982-.526 3.158 47.9-95.792 6.315a8 8 0 0 0 -6.849 4.884l-13.86 32.983a8 8 0 0 0 -.032 6.123l7.629 18.686a64.979 64.979 0 0 1 -32.41-6.093 8 8 0 1 0 -6.862 14.451 81.125 81.125 0 0 0 70.4-.474 81.63 81.63 0 0 0 71.38 0 81.635 81.635 0 0 0 71.382 0 81.624 81.624 0 0 0 71.38 0 81.629 81.629 0 0 0 71.387 0q3.324 1.628 6.766 2.928a8.105 8.105 0 0 0 .875.323 81.725 81.725 0 0 0 63.616-3.188 72.868 72.868 0 0 0 35.436 9.184q2.458 0 4.929-.165a8 8 0 0 0 7.45-8.522zm-29.241-97.063-15.1 1 2.135-8.159 15.1-1zm-29.8-6.053-2.134 8.158-15.1 1 2.135-8.158zm-47.033 3.1 15.1-1-2.134 8.158-15.1 1zm-172.859 19.415-1.053-15.965 15.966-1.053 1.052 15.965zm31.931-2.105-1.053-15.965 15.965-1.053 1.053 15.965zm31.93-2.1-1.052-15.965 47.9-3.158c.119-.008.234-.028.352-.041l15.039 15.061zm-98.95-41.581 116.118-7.655 15.022 15.044-106.139 7a8 8 0 0 0 -7.457 8.509l1.58 23.948-15.966 1.052zm-102.613 70.901 382.363-25.211a105.033 105.033 0 0 1 -7.57 16.533l-381.723 25.168zm293.63 38.929a65.41 65.41 0 0 1 -63.5.009 8.012 8.012 0 0 0 -7.868-.021 65.4 65.4 0 0 1 -63.554 0 8 8 0 0 0 -7.823 0 65.408 65.408 0 0 1 -63.51.027 8.01 8.01 0 0 0 -7.541-.2c-.112.056-.224.115-.333.176a65.4 65.4 0 0 1 -63.553 0 8.007 8.007 0 0 0 -7.825 0 64.806 64.806 0 0 1 -11.233 4.955l-4.609-11.291 370.712-24.442a106.3 106.3 0 0 1 -54.886 34 63.784 63.784 0 0 1 -6.606-3.207 8.014 8.014 0 0 0 -7.871-.008z" fill="url(#linear-gradient)"/></g></svg>