<svg height="512" viewBox="0 0 512 512" width="512" xmlns="http://www.w3.org/2000/svg" xmlns:xlink="http://www.w3.org/1999/xlink"><linearGradient id="linear-gradient" gradientUnits="userSpaceOnUse" x1="116.397" x2="387.711" y1="415.711" y2="144.397"><stop offset="0" stop-color="#41dfd0"/><stop offset="1" stop-color="#ee83ef"/></linearGradient><g id="gradient"><path d="m136 344a8 8 0 0 1 -8 8h-72a8 8 0 0 1 0-16h72a8 8 0 0 1 8 8zm40 8a8 8 0 0 0 0-16h-16a8 8 0 0 0 0 16zm120-16h-88a8 8 0 0 0 0 16h88a8 8 0 0 0 0-16zm120 16h56a8 8 0 0 0 0-16h-56a8 8 0 0 0 0 16zm-312 24a8 8 0 0 0 8 8h120a8 8 0 0 0 0-16h-120a8 8 0 0 0 -8 8zm152 0a8 8 0 0 0 8 8h72a8 8 0 0 0 0-16h-72a8 8 0 0 0 -8 8zm240-64a8 8 0 0 1 -8 8h-464a8 8 0 0 1 0-16h23.746a127.063 127.063 0 0 0 -7.892-36.853c-4.024-10.711-7.476-24.643-7.621-25.231a8 8 0 0 1 7.767-9.916h29.042a21.9 21.9 0 0 1 -5.042-14v-36a22.025 22.025 0 0 1 22-22h42.963a83.816 83.816 0 0 1 46.642 14.122l2.817 1.878h229.578a24 24 0 0 1 0 48h-96v8h160a8 8 0 0 1 8 8v8a71.883 71.883 0 0 1 -26.815 56h34.815a8 8 0 0 1 8 8zm-435.631-32h393.548a56.048 56.048 0 0 0 4.669-8h-400.269c.769 2.648 1.438 5.318 2.052 8zm347.631-88h-96v16h96a8 8 0 0 0 0-16zm-224 16h112v-16h-112zm-104 10a6.006 6.006 0 0 0 6 6h42.963a67.869 67.869 0 0 0 37.767-11.435l1.27-.846v-3.719h-56a8 8 0 0 1 0-16h56v-3.719l-1.27-.846a67.869 67.869 0 0 0 -37.767-11.435h-42.963a6.006 6.006 0 0 0 -6 6zm84.774 14h131.226v-8h-117.578l-2.817 1.878a84.442 84.442 0 0 1 -10.831 6.122zm-114.323 16c.726 2.515 1.562 5.278 2.455 8h410.513a56.14 56.14 0 0 0 .581-8zm357.549 56a55.66 55.66 0 0 0 28.81-8h-373.724c.3 2.657.545 5.322.693 8zm-24 48a8 8 0 0 0 0-16h-56a8 8 0 0 0 0 16z" fill="url(#linear-gradient)"/></g></svg>