<?xml version="1.0" encoding="UTF-8"?>
<svg xmlns="http://www.w3.org/2000/svg" xmlns:xlink="http://www.w3.org/1999/xlink" viewBox="0 0 512 512" width="512" height="512"><defs><linearGradient id="linear-gradient" x1="82.202" y1="533.52" x2="506.883" y2="108.839" gradientUnits="userSpaceOnUse"><stop offset="0" stop-color="#41dfd0"/><stop offset="1" stop-color="#ee83ef"/></linearGradient></defs><g id="gradient"><path d="M487.054,463.871a56.9,56.9,0,0,1-14.3-.833l14.836-44.508A8,8,0,0,0,480,408H464V384a8,8,0,0,0-8-8H428.281l-9.606-14.409,14.242-1.644a8,8,0,0,0,5.943-12.063l-192-320A8,8,0,0,0,232.016,31.5L228.6,86.114,35.47,408H24a8,8,0,0,0-6.51,12.65l29.93,41.9a64.807,64.807,0,0,1-19.991-5.779,8,8,0,0,0-6.858,14.456,81.135,81.135,0,0,0,70.4-.474,81.641,81.641,0,0,0,71.38,0,81.635,81.635,0,0,0,71.382,0,81.628,81.628,0,0,0,71.379,0,81.628,81.628,0,0,0,71.388,0,81.625,81.625,0,0,0,71.26.065A72.868,72.868,0,0,0,483.2,480q2.458,0,4.929-.165a8,8,0,1,0-1.071-15.965ZM448,408H352l12-16h84Zm-46.656-43.562L409.052,376H360a8,8,0,0,0-6.4,3.2L332,408h-7.719l-21.987-32.981,98.588-11.375A8.39,8.39,0,0,0,401.344,364.438ZM284.438,377.08,305.052,408H224.516l1.511-24.181Zm-38.059-318.9L418.755,345.476,227.041,367.6Zm-19.946,62.647L211.961,352.381,79.11,366.365ZM68.807,383.538l142.141-14.962L208.484,408H54.13Zm383,71.207a8.032,8.032,0,0,0-7.836.008,65.407,65.407,0,0,1-63.484.033,8.024,8.024,0,0,0-7.917-.028,65.407,65.407,0,0,1-63.5.013,8.009,8.009,0,0,0-7.892-.012,65.405,65.405,0,0,1-63.533-.014,8,8,0,0,0-7.823,0,65.408,65.408,0,0,1-63.471.049,8.013,8.013,0,0,0-7.926-.039,65.409,65.409,0,0,1-63.539-.008,8.005,8.005,0,0,0-7.826,0A64.892,64.892,0,0,1,66.7,462.019L39.545,424H468.9l-11.3,33.916c-.762-.384-1.52-.779-2.268-1.2ZM345.575,284.056a8,8,0,1,1,13.791-8.112l9.412,16a8,8,0,1,1-13.791,8.112Zm-56.471-96a8,8,0,0,1,13.792-8.114l40,68a8,8,0,1,1-13.792,8.114Zm78.41-62.031a35.959,35.959,0,0,0-4.045,37.408A8,8,0,0,0,370.7,168H486.634a8,8,0,0,0,7.543-5.335,32.021,32.021,0,0,0-25.346-42.3A39.986,39.986,0,0,0,432,96c-.183,0-.364.014-.546.016A35.428,35.428,0,0,0,362.9,108.571,35.186,35.186,0,0,0,367.514,126.026Zm87.735,3.988a7.972,7.972,0,0,0,8.078,6c.223-.009.447-.019.673-.019a16.019,16.019,0,0,1,16,16H376.4a20.005,20.005,0,0,1,25.1-23.229,8,8,0,0,0,9.267-3.957,24.006,24.006,0,0,1,44.483,5.2ZM398.326,89.143a19.5,19.5,0,0,1,17.2,10.408,39.887,39.887,0,0,0-15.68,12.655,35.943,35.943,0,0,0-19.614,3.439,19.429,19.429,0,0,1,18.1-26.5Zm-8-35.428V40a8,8,0,0,1,16,0V53.715a8,8,0,1,1-16,0ZM344.182,65.74A8,8,0,1,1,355.5,54.428l9.7,9.7a8,8,0,1,1-11.315,11.312Zm-22.427,42.831a8,8,0,0,1,8-8h13.714a8,8,0,0,1,0,16H329.755A8,8,0,0,1,321.755,108.571Zm109.7-33.132a8,8,0,0,1,0-11.313l9.7-9.7A8,8,0,0,1,452.471,65.74l-9.7,9.7a8,8,0,0,1-11.314,0Z" style="fill:url(#linear-gradient)"/></g></svg>
