<svg height="512" viewBox="0 0 512 512" width="512" xmlns="http://www.w3.org/2000/svg" xmlns:xlink="http://www.w3.org/1999/xlink"><linearGradient id="linear-gradient" gradientUnits="userSpaceOnUse" x1="65.338" x2="430.276" y1="524.245" y2="159.307"><stop offset="0" stop-color="#41dfd0"/><stop offset="1" stop-color="#ee83ef"/></linearGradient><g id="gradient"><path d="m495.982 479.318a8 8 0 0 1 -7.446 8.517q-2.469.167-4.931.166a72.89 72.89 0 0 1 -35.433-9.182 81.633 81.633 0 0 1 -71.256-.064 81.609 81.609 0 0 1 -71.39 0 81.624 81.624 0 0 1 -71.38 0 81.639 81.639 0 0 1 -71.381 0 81.641 81.641 0 0 1 -71.38 0 81.14 81.14 0 0 1 -70.4.474 8 8 0 0 1 6.858-14.457 65.091 65.091 0 0 0 59.632-2.027 8.007 8.007 0 0 1 7.825 0 65.41 65.41 0 0 0 63.553 0c.109-.062.221-.121.333-.177a8.007 8.007 0 0 1 7.16 0c.113.056.228.117.337.178a65.4 65.4 0 0 0 63.554 0 8 8 0 0 1 7.822 0 65.409 65.409 0 0 0 63.555 0 8.009 8.009 0 0 1 7.659-.094c.056.03.12.064.175.1a65.41 65.41 0 0 0 63.549 0 8.021 8.021 0 0 1 7.621-.119c.07.037.152.081.221.12a65.405 65.405 0 0 0 63.545 0l.146-.079a8.027 8.027 0 0 1 7.689.072l3.52 1.972a56.922 56.922 0 0 0 31.729 7.155 8 8 0 0 1 8.514 7.445zm-284.166-139.167a7.993 7.993 0 0 0 10.461-4.31l6.484-15.569a8 8 0 1 0 -14.77-6.151l-6.485 15.569a8 8 0 0 0 4.31 10.461zm16.21-38.923a7.993 7.993 0 0 0 10.461-4.31l22.7-54.492a8 8 0 1 0 -14.771-6.151l-22.694 54.492a8 8 0 0 0 4.304 10.461zm267.956 140.366a8 8 0 0 1 -7.446 8.518q-2.467.165-4.93.165a72.868 72.868 0 0 1 -35.436-9.184 81.645 81.645 0 0 1 -71.254-.062 80.319 80.319 0 0 1 -18 6.284 8 8 0 0 1 -7.94 7.162c-.189 0-.378-.007-.569-.02l-127.437-8.971a81.719 81.719 0 0 1 -59.661-4.2l-.948-.066a81.641 81.641 0 0 1 -70.976-.189 81.067 81.067 0 0 1 -70.859.256 8 8 0 1 1 6.948-14.413 65.043 65.043 0 0 0 60-1.853 8.007 8.007 0 0 1 7.825 0 65.472 65.472 0 0 0 56.462 3.411l1.718-23.535a80.659 80.659 0 0 1 -62.1-3.866 81.06 81.06 0 0 1 -70.854.254 8 8 0 1 1 6.948-14.412 65.044 65.044 0 0 0 60-1.854 8.008 8.008 0 0 1 7.826 0 64.811 64.811 0 0 0 59.478 2.095l.634-8.676q-.462-.479-.9-.984a24 24 0 0 1 13.934-39.317l65.555-151.01a8.024 8.024 0 0 1 7.92-4.793l1.748-23.936a8 8 0 0 1 1.945-4.671l24.515-28.156.971-13.3-15.957-1.165a8 8 0 0 1 -7.4-8.562l3.932-53.856a18.024 18.024 0 0 1 19.263-16.642l27.926 2.039a18 18 0 0 1 16.637 19.265l-3.931 53.857a8 8 0 0 1 -7.979 7.417q-.291 0-.583-.021l-15.957-1.165-.971 13.3 20.166 31.418a8 8 0 0 1 1.246 4.9l-1.747 23.936a8 8 0 0 1 7.14 5.893l42.93 158.935a23.973 23.973 0 0 1 12.725 35.48q2.265-1.05 4.454-2.272a8.019 8.019 0 0 1 7.857.01 65.4 65.4 0 0 0 63.53-.007 8.03 8.03 0 0 1 7.835-.008l3.52 1.972a56.939 56.939 0 0 0 31.729 7.155 8 8 0 1 1 1.072 15.964q-2.467.165-4.93.165a72.868 72.868 0 0 1 -35.436-9.184 81.646 81.646 0 0 1 -71.253-.06 80.959 80.959 0 0 1 -15.013 5.6l-1.74 23.838a64.159 64.159 0 0 0 12.829-5.441 8.019 8.019 0 0 1 7.857.01 65.4 65.4 0 0 0 63.53-.007 8.03 8.03 0 0 1 7.835-.008l3.52 1.972a56.954 56.954 0 0 0 31.729 7.155 8 8 0 0 1 8.518 7.44zm-221.375-8.513a65.043 65.043 0 0 0 23.078-6.037l-129.094-9.424-.581 7.958 52.9 3.723a64.039 64.039 0 0 0 9.328-4.28 8 8 0 0 1 7.823 0 64.409 64.409 0 0 0 17.844 6.743zm71.845-34.541-175.566-12.357-1.13 15.48 175.532 12.814zm-2.531 34.66.2-2.766-27.632-2.017a65.441 65.441 0 0 0 27.432 4.783zm-86.047-249.7 7.979.583 1.165-15.958-7.979-.582zm10.309-31.332 7.979.583 7.978.582-7.2-11.221zm13.627 33.08 7.979.582 1.165-15.957-7.979-.583zm-17.529-89.516 31.915 2.33 3.35-45.877a2 2 0 0 0 -1.849-2.14l-27.926-2.039a2 2 0 0 0 -2.141 1.849zm-92.2 274.015 175.533 12.815a8 8 0 0 0 1.165-15.958 8 8 0 0 1 -7.14-5.893l-42.718-158.173-52.509-3.833-65.241 150.295a8 8 0 0 1 -7.92 4.794q-.3-.023-.595-.022a8 8 0 0 0 -.571 15.979zm-110.424-208.776a3.317 3.317 0 0 1 4.686 0 8 8 0 0 0 11.314 0 3.317 3.317 0 0 1 4.686 0 8 8 0 0 0 11.314-11.315 19.348 19.348 0 0 0 -21.657-3.922 19.345 19.345 0 0 0 -21.657 3.922 8 8 0 0 0 11.314 11.315zm52.686 4.685a8 8 0 0 0 11.314 11.315 3.317 3.317 0 0 1 4.686 0 8 8 0 0 0 11.314 0 3.317 3.317 0 0 1 4.686 0 8 8 0 0 0 11.314-11.315 19.351 19.351 0 0 0 -21.657-3.922 19.345 19.345 0 0 0 -21.657 3.922zm-12.686-36.685a3.317 3.317 0 0 1 4.686 0 8 8 0 0 0 11.314 0 3.317 3.317 0 0 1 4.686 0 8 8 0 0 0 11.314-11.315 19.35 19.35 0 0 0 -21.657-3.922 19.347 19.347 0 0 0 -21.657 3.922 8 8 0 0 0 11.314 11.315zm282.343 127.029a28.1 28.1 0 0 1 19.565-26.68 32 32 0 0 1 56.87 0 28.1 28.1 0 0 1 19.565 26.68 8 8 0 0 1 -8 8h-80a8 8 0 0 1 -8-8zm19.082-8h57.836a11.947 11.947 0 0 0 -7.292-3.869 8 8 0 0 1 -6.494-5.329 16 16 0 0 0 -30.264 0 8 8 0 0 1 -6.494 5.329 11.947 11.947 0 0 0 -7.292 3.869zm-299.082-32a8 8 0 0 0 0-16h-16a8 8 0 0 0 0 16zm24-8a8 8 0 0 0 8 8h32a8 8 0 0 0 0-16h-32a8 8 0 0 0 -8 8zm-72 32a8 8 0 0 0 8 8h80a8 8 0 0 0 0-16h-80a8 8 0 0 0 -8 8zm312 56h16a8 8 0 0 0 0-16h-16a8 8 0 0 0 0 16zm96-8a8 8 0 0 0 -8-8h-32a8 8 0 0 0 0 16h32a8 8 0 0 0 8-8zm-80 24a8 8 0 0 0 0 16h48a8 8 0 0 0 0-16z" fill="url(#linear-gradient)"/></g></svg>