<?xml version="1.0" encoding="UTF-8"?>
<svg xmlns="http://www.w3.org/2000/svg" xmlns:xlink="http://www.w3.org/1999/xlink" viewBox="0 0 512 512" width="512" height="512"><defs><linearGradient id="linear-gradient" x1="78.493" y1="489.939" x2="433.507" y2="134.925" gradientUnits="userSpaceOnUse"><stop offset="0" stop-color="#41dfd0"/><stop offset="1" stop-color="#ee83ef"/></linearGradient></defs><g id="gradient"><path d="M431.972,487.468A153.332,153.332,0,0,0,365.687,373.28a41.862,41.862,0,0,0-7.7-10.569L323.87,328.674A110.484,110.484,0,0,0,343.634,298.7a203.2,203.2,0,0,0,22.944,1.3h7.109A35.313,35.313,0,0,0,409,264.687V236a8,8,0,0,0-8-8H373.723a32.016,32.016,0,0,0-16.7-41.1,57.943,57.943,0,0,0-.794-46.389l-3.583-7.839A7.958,7.958,0,0,0,352,131.54v-9.118l8.145-12.217a31.791,31.791,0,0,0,3.732-27.871L358.93,67.492A48.1,48.1,0,0,0,322.807,35.6l-15.686-3.137L303.728,30.2a85.816,85.816,0,0,0-95.456,0l-3.393,2.262L189.193,35.6A48.1,48.1,0,0,0,153.07,67.492l-4.947,14.842a31.789,31.789,0,0,0,3.732,27.87L160,122.422v11.69l-2.206,4.412a58.207,58.207,0,0,0-1.788,47.95A32,32,0,0,0,160,247.12v6.011a110.686,110.686,0,0,0,28.841,74.834l-34.828,34.746a41.9,41.9,0,0,0-7.7,10.568A153.338,153.338,0,0,0,80.028,487.468,8,8,0,0,0,88,496.133H424a8,8,0,0,0,7.972-8.665Zm-35.339-58.7a136.983,136.983,0,0,1,12.612,27.176c-.413.031-.828.052-1.245.052a15.977,15.977,0,0,1-11.367-27.228Zm-44.042-26.994L322.505,480h-31.9l29.086-101.8a8,8,0,0,0-2.042-7.862l-21.154-21.1a89.078,89.078,0,0,0,15.606-9.7l34.585,34.5A26.019,26.019,0,0,1,352.591,401.778Zm-79.3-44.973,1.046-.2c1.891-.366,3.759-.8,5.61-1.284l16.39,16.351-13.12,3.28-13.2-17.593C271.109,357.188,272.2,357.016,273.287,356.805Zm-2.653,28.039L267.056,392H244.944l-3.578-7.156L256,365.333ZM271.24,480H240.76l6.546-72h17.388Zm8.933-78.458,5.337-10.673,14.992-3.748-16.416,57.458Zm-47.991-46.4q3.209.893,6.5,1.551c1.118.224,2.239.407,3.36.587l-13.252,17.67-13.12-3.28,16.025-15.987C231.866,355.51,232.027,355.328,232.182,355.143Zm-5.692,35.726,5.337,10.673-3.913,43.037L211.5,387.121ZM312,317.945V312a8,8,0,0,0-16,0v19.258a73.173,73.173,0,0,1-16,7.39V320a8,8,0,0,0-16,0v22.016a73.092,73.092,0,0,1-16-.059V320a8,8,0,0,0-16,0v18.32a73.2,73.2,0,0,1-16-7.865V312a8,8,0,0,0-16,0v4.434a94.618,94.618,0,0,1-23.324-51.878c.081.121.149.249.238.367l13.5,18a43.208,43.208,0,0,0,34.4,17.2,42.721,42.721,0,0,0,30.407-12.595l.435-.435.434.434a42.718,42.718,0,0,0,30.408,12.6,43.168,43.168,0,0,0,24.675-7.828q7.917,2.244,15.976,3.834A94.624,94.624,0,0,1,312,317.945ZM224.042,97.636a31.779,31.779,0,0,0,1.807,9.072L172.016,111.6l-5.477-8.216Zm121.419,5.75-5.477,8.216-53.833-4.894a31.779,31.779,0,0,0,1.807-9.072ZM330,252c-.458,0-16.833.04-16.833.04.116-1.485.18-7.473.18-7.473a41.791,41.791,0,0,1,13.445-30.682,8,8,0,0,0,2.578-6.081l-1.261-51.46,13.788-8.695a41.988,41.988,0,0,1-2.555,38.873l-.8,1.315A8,8,0,0,0,337.373,192L338,244A8.009,8.009,0,0,1,330,252ZM187.156,139.156,176,131.718v-4.412l54.552-4.959c2.018-.184,4.068-.348,6.092-.488.156-.01.307-.035.46-.055a31.909,31.909,0,0,0,37.752.028c2.194.148,4.408.316,6.593.515L336,127.306v4.412l-11.156,7.438a124.112,124.112,0,0,1-137.688,0ZM272,96a16,16,0,1,1-16-16A16.019,16.019,0,0,1,272,96Zm-72,68.321a140.078,140.078,0,0,0,112.3-.133l.994,40.545A57.873,57.873,0,0,0,297.4,242.2a35.99,35.99,0,0,0-34.357-8.981A8,8,0,0,0,256,229a.563.563,0,0,1-.469-.875l7.125-10.687a8,8,0,0,0-13.312-8.876l-7.126,10.688a16.536,16.536,0,0,0-2.389,12.782,36.08,36.08,0,0,0-10.676,1.769l-2,.653a36.222,36.222,0,0,0-11.316,6.118A57.469,57.469,0,0,0,200,204.709Zm19.306,95.043,4.918-4.876a20.124,20.124,0,0,1,7.9-4.824l2-.653a20.055,20.055,0,0,1,14.14.64l4.238,1.822a8.011,8.011,0,0,0,5.775.211l7.463-2.582a20.059,20.059,0,0,1,20.677,4.712l5.6,5.549a29.742,29.742,0,0,0,20.068,8.66l-3.974,5.3a27.133,27.133,0,0,1-21.6,10.8,26.83,26.83,0,0,1-19.1-7.909l-5.747-5.748A8,8,0,0,0,256,268.123h-.687a8,8,0,0,0-5.656,2.343l-5.748,5.748a26.828,26.828,0,0,1-19.094,7.909,27.133,27.133,0,0,1-21.6-10.8l-3.974-5.3A29.745,29.745,0,0,0,219.306,259.364ZM393,264.687A19.314,19.314,0,0,1,373.687,284h-7.109a186.91,186.91,0,0,1-42.766-4.96l8.451-11.268A24.031,24.031,0,0,0,353,244h40ZM354.7,228h-1.326V203.172A15.963,15.963,0,0,1,354.7,228ZM168.249,72.551a32.071,32.071,0,0,1,24.082-21.259l17.238-3.447a8,8,0,0,0,2.869-1.189l4.709-3.14a69.86,69.86,0,0,1,77.7,0l4.71,3.14a8,8,0,0,0,2.869,1.189l17.238,3.447a32.071,32.071,0,0,1,24.082,21.259L348.7,87.394c.026.08.04.162.066.242l-64.409-6.441a31.978,31.978,0,0,0-56.712,0l-64.409,6.441c.026-.08.04-.162.066-.242ZM152,216.133a16,16,0,0,1,8-13.835v27.67A16,16,0,0,1,152,216.133Zm19.153-68.416L184,156.282V208a8,8,0,0,0,2.343,5.657l1.376,1.375A41.661,41.661,0,0,1,200,244.683V247.6c0,1.43.064,2.861.172,4.287a14.166,14.166,0,0,1-1.86.149l-15.043.083a8,8,0,0,0-7.121,4.442c-.029.059-.046.121-.074.18-.044-1.2-.074-2.405-.074-3.614v-61a8,8,0,0,0-1.333-4.421A42.161,42.161,0,0,1,171.153,147.717Zm29.318,191.247a89.2,89.2,0,0,0,15.43,9.872l-21.551,21.5a8,8,0,0,0-2.042,7.862L221.394,480H189.5l-30.086-78.222a26.019,26.019,0,0,1,5.9-27.74Zm-58.548,57.99a41.877,41.877,0,0,0,2.553,10.568L172.4,480.133H152V456a8,8,0,0,0-16,0v24.133H96.965A137.2,137.2,0,0,1,141.923,396.954ZM376,480.133V456a8,8,0,0,0-16,0v24.133H339.6l27.927-72.612a41.869,41.869,0,0,0,2.553-10.567A137.653,137.653,0,0,1,387.5,415.5a8.1,8.1,0,0,0-.839.647,32.007,32.007,0,0,0,26.823,55.379c.6,2.842,1.123,5.709,1.547,8.6ZM233,210a9,9,0,1,1-9-9A9,9,0,0,1,233,210Zm63,0a9,9,0,1,1-9-9A9,9,0,0,1,296,210Zm-25.951-20.117a8,8,0,0,1,7.068-8.834l18-2a8,8,0,0,1,1.766,15.9l-18,2a8.165,8.165,0,0,1-.893.049A8,8,0,0,1,270.049,189.883Zm-54.932,5.068a8,8,0,0,1,1.766-15.9l18,2A8,8,0,0,1,234.01,197a8.165,8.165,0,0,1-.893-.049Z" style="fill:url(#linear-gradient)"/></g></svg>
