<svg height="512" viewBox="0 0 512 512" width="512" xmlns="http://www.w3.org/2000/svg" xmlns:xlink="http://www.w3.org/1999/xlink"><linearGradient id="linear-gradient" gradientUnits="userSpaceOnUse" x1="103.265" x2="408.735" y1="408.735" y2="103.265"><stop offset="0" stop-color="#41dfd0"/><stop offset="1" stop-color="#ee83ef"/></linearGradient><g id="gradient"><path d="m472 256a216 216 0 0 0 -368.735-152.735 216 216 0 1 0 305.47 305.47 214.587 214.587 0 0 0 63.265-152.735zm-216 200c-110.28 0-200-89.72-200-200s89.72-200 200-200 200 89.72 200 200-89.72 200-200 200zm0-384c-101.458 0-184 82.542-184 184s82.542 184 184 184 184-82.542 184-184-82.542-184-184-184zm0 352c-92.636 0-168-75.364-168-168s75.364-168 168-168 168 75.364 168 168-75.364 168-168 168zm148.505-135.449c-.707 3.237-1.53 6.489-2.447 9.668a8 8 0 1 1 -15.372-4.438c.819-2.841 1.555-5.748 2.187-8.642a8 8 0 1 1 15.632 3.412zm-33.2-119.2a8 8 0 0 1 11.1 2.2 151.769 151.769 0 0 1 10.792 18.978 7.993 7.993 0 1 1 6.114 14.765c.991 2.8 1.927 5.626 2.753 8.489a8 8 0 1 1 -15.373 4.436 135.219 135.219 0 0 0 -17.591-37.769 8 8 0 0 1 2.2-11.098zm-179.127-48.127a8 8 0 1 1 11.314 0 8 8 0 0 1 -11.314 0zm-51.048 24.23a8 8 0 1 1 4.33 10.452 8 8 0 0 1 -4.33-10.452zm-33.56 52.374a8 8 0 1 1 8 8 8 8 0 0 1 -8-8zm13.654 110.68a8 8 0 1 1 -11.314 0 8 8 0 0 1 11.314 0zm84.6 87.922a8 8 0 1 1 -8-8 8 8 0 0 1 8.004 8zm113.994-5.654a8 8 0 1 1 -11.314 0 8 8 0 0 1 11.318 0zm51.048-24.23a8 8 0 1 1 -4.33-10.452 8 8 0 0 1 4.334 10.452zm32.951-49.31a8 8 0 1 1 -4.329-10.452 8 8 0 0 1 4.333 10.452zm7.242-68.627a7.978 7.978 0 0 0 -7.06.472 7.929 7.929 0 0 0 -2.327-.9l-83.018-17.79 45.691-72.165a7.956 7.956 0 0 0 .988-2.307 8 8 0 1 0 -9.6-9.754 7.984 7.984 0 0 0 -2.462 1.042l-68.012 43.5s-22.277-82.607-22.337-82.707a8 8 0 1 0 -13.845 0l-22.524 83.383-54.668-30.371a8 8 0 0 0 -10.669 11.233l35.844 57.351-86.736 18.587a8 8 0 0 0 0 15.644l83.019 17.79-45.692 72.165a7.975 7.975 0 0 0 -.88 1.907 8 8 0 1 0 9.386 10.16 7.95 7.95 0 0 0 2.564-1.048l68.011-43.5s22.285 82.6 22.344 82.7a8 8 0 1 0 13.844.007c.124-.215 21.5-79.515 21.5-79.515l47.7 26.5a8 8 0 0 0 10.669-11.233l-34.9-55.839 93.791-20.1a7.977 7.977 0 0 0 2.327-.9 8 8 0 1 0 7.06-14.311zm-120.73-3.394a35.886 35.886 0 0 0 -23.705-23.6l64.945-41.538zm-55.672-22.143 13.343-50.023v41.491zm7.164 18.819a20 20 0 1 1 .066 28.284 20.023 20.023 0 0 1 -.062-28.284zm35.514 47.037-13.335 50.023v-41.491zm-13.335-84.622v-31.258l7.121 26.7zm-72.786-14.257 31.086 17.271-4.77 17.884-3.832.821zm-41.033 65.951 68.7-14.721-16.416 25.921zm62.813 24.484.048-.075 8.625-13.624a35.891 35.891 0 0 0 23.7 23.6l-17.756 11.356c-.189.11-.372.228-.551.352l-46.633 29.827zm35.006 27.21v31.258l-7.121-26.7zm40.666.858 4.709-17.658 19.411 31.057zm4.455-37.831 16.414-25.921 52.284 11.2zm13.051-155.151a8 8 0 1 1 8 8 8 8 0 0 1 -8-8z" fill="url(#linear-gradient)"/></g></svg>