<svg height="512" viewBox="0 0 512 512" width="512" xmlns="http://www.w3.org/2000/svg" xmlns:xlink="http://www.w3.org/1999/xlink"><linearGradient id="linear-gradient" gradientUnits="userSpaceOnUse" x1="156.054" x2="445.677" y1="379.928" y2="90.305"><stop offset="0" stop-color="#41dfd0"/><stop offset="1" stop-color="#ee83ef"/></linearGradient><g id="gradient"><path d="m443.07 358.373 7.625-41.938a212.629 212.629 0 0 0 -142.895-240.066 51.167 51.167 0 0 1 25.345-28.4l.2-.1a14.274 14.274 0 0 0 -3.818-26.954 118.215 118.215 0 0 0 -95.2 25.816l-6.133 5.11-28.984-8.918a88.923 88.923 0 0 0 -77.39 12.554l-20.056 14.323a37.453 37.453 0 0 1 -21.89 7.014h-37.087a24.845 24.845 0 0 0 -24.817 24.82c0 15.349 11.407 31.175 25.968 36.029l15.981 5.327a53.341 53.341 0 0 1 20.745 12.821l8.648 8.648a158.806 158.806 0 0 0 67.288 39.941l4.752 1.4a137.536 137.536 0 0 0 27.239 76.812 8 8 0 0 0 9.978 2.356 55.077 55.077 0 0 0 29.877-41.4l2.722-17.229 8.288 2.437a695.526 695.526 0 0 1 70.97 25.137l7.5 3.124a90.77 90.77 0 0 1 55.867 83.939 7.942 7.942 0 0 0 -.023 2.138c-.059 2.251-2.043 23.017-2.043 23.017a132.593 132.593 0 0 0 -37.08 92.339v21.53a8 8 0 0 0 12.437 6.656l38.043-25.362a85.5 85.5 0 0 0 21.852-21.051 85.5 85.5 0 0 0 21.851 21.051l38.043 25.362a8 8 0 0 0 12.436-6.656v-29.5a134 134 0 0 0 -29.257-83.4zm-342.444-205.228-7.774-7.774a85.851 85.851 0 0 1 48.966 11.144l22.62 12.926-1.358 8.552q-.933 5.6-1.383 11.232l-.582-.171a142.764 142.764 0 0 1 -60.489-35.909zm223.451 89.119-7.5-3.124a711.609 711.609 0 0 0 -72.608-25.717l-10.282-3.023 2.651-16.78 30.37 9.111 58.146 19.382a82.539 82.539 0 0 1 56.446 76.987 108.328 108.328 0 0 0 -6.6-13 106.057 106.057 0 0 0 -50.623-43.836zm139.232 222.788-25.609-17.071a69.488 69.488 0 0 1 -23.571-26.7 8 8 0 0 0 -14.311 0 69.488 69.488 0 0 1 -23.571 26.7l-25.605 17.071v-6.586a116.738 116.738 0 0 1 34.417-83.092 8 8 0 0 0 2.3-4.861s2.365-24.838 2.422-27.722l4.6-18.4a98.6 98.6 0 0 0 -64.476-117.454l-58.262-19.421c-.077-.026-.154-.05-.231-.073l-32.563-9.769 1.405-8.89a8 8 0 0 0 -15.8-2.5l-11.826 74.843c-.007.039-.012.078-.018.118a39.076 39.076 0 0 1 -15.393 25.846 121.522 121.522 0 0 1 -18.35-86.525l6.248-39.349a8 8 0 1 0 -15.8-2.51l-2.2 13.841-17.365-9.923a101.839 101.839 0 0 0 -74.87-10.59 68.793 68.793 0 0 0 -9.6-4.108 39.186 39.186 0 0 0 16.5-9.878 8 8 0 0 0 -11.314-11.315 23.226 23.226 0 0 1 -16.531 6.847h-14.57a7.982 7.982 0 0 0 -1.245.107 22.073 22.073 0 0 1 -4.15-12.051 8.827 8.827 0 0 1 8.817-8.817h37.087a53.358 53.358 0 0 0 31.189-9.995l20.057-14.325a72.833 72.833 0 0 1 63.386-10.285l33.127 10.185a8.009 8.009 0 0 0 7.474-1.5l9.464-7.885a102.209 102.209 0 0 1 77.173-23.049 67.079 67.079 0 0 0 -31.586 44.054 8 8 0 0 0 5.473 9.3l3.688 1.135a196.631 196.631 0 0 1 135.634 223.118l-8.277 45.527a8 8 0 0 0 1.624 6.427l9.258 11.573a117.935 117.935 0 0 1 25.751 73.4zm-78.98-272.663a8 8 0 0 1 -11.172-1.785 197.117 197.117 0 0 0 -26.714-29.9 8 8 0 1 1 10.784-11.82 213.143 213.143 0 0 1 28.886 32.334 8 8 0 0 1 -1.784 11.171zm19.27 17.477a8 8 0 1 1 -14.273 7.231c-.859-1.7-1.756-3.405-2.667-5.078a8 8 0 0 1 14.056-7.645c.985 1.811 1.955 3.658 2.885 5.492zm-263.141 50.716a8.042 8.042 0 1 1 -8.041-8.042 8.041 8.041 0 0 1 8.041 8.042zm174.616 117.176a8.042 8.042 0 1 1 -8.042-8.042 8.042 8.042 0 0 1 8.042 8.042zm129.813-212.526a8.042 8.042 0 1 1 8.041-8.041 8.041 8.041 0 0 1 -8.041 8.041zm43.2 42.81a8.042 8.042 0 1 1 -8.045-8.042 8.041 8.041 0 0 1 8.041 8.042zm-112.045-167.959a8.042 8.042 0 1 1 8.041-8.041 8.041 8.041 0 0 1 -8.041 8.041zm-16.166 42.437a8.042 8.042 0 1 1 8.042-8.042 8.042 8.042 0 0 1 -8.042 8.042zm-256.176 222.864a9.191 9.191 0 1 1 -9.19-9.19 9.191 9.191 0 0 1 9.19 9.19zm193 18.381a9.191 9.191 0 1 1 9.19-9.19 9.19 9.19 0 0 1 -9.197 9.19zm193-165.425a9.19 9.19 0 1 1 -9.19-9.191 9.19 9.19 0 0 1 9.179 9.191zm-404.384 90.754a8.042 8.042 0 1 1 -8.041-8.042 8.041 8.041 0 0 1 8.041 8.042zm91.9-161.979a11.488 11.488 0 1 1 -11.488-11.488 11.488 11.488 0 0 1 11.491 11.488z" fill="url(#linear-gradient)"/></g></svg>