<?xml version="1.0" encoding="UTF-8"?>
<svg xmlns="http://www.w3.org/2000/svg" xmlns:xlink="http://www.w3.org/1999/xlink" viewBox="0 0 512 512" width="512" height="512"><defs><linearGradient id="linear-gradient" x1="46.503" y1="489.874" x2="468.269" y2="68.107" gradientUnits="userSpaceOnUse"><stop offset="0" stop-color="#41dfd0"/><stop offset="1" stop-color="#ee83ef"/></linearGradient></defs><g id="gradient"><path d="M213.583,153.718a307.956,307.956,0,0,1-5.426-57.487V88.9a72.982,72.982,0,0,0-72.9-72.9h0a73,73,0,0,0-72.9,72.976A307.6,307.6,0,0,1,54,160.137l-9.983,41.93A1031.592,1031.592,0,0,0,16,440.717a45.01,45.01,0,0,0,62.74,41.371l9.552-4.094L101.3,485.8a65.882,65.882,0,0,0,67.913,0l12.8-7.681a45.011,45.011,0,0,0,63.229-41.158V417.186a1032.883,1032.883,0,0,0-18.2-192.791Zm15.66,283.243a28.8,28.8,0,0,1-12.591,23.9l-2.1-20.976a732.366,732.366,0,0,0-24.478-127.974l-.771-2.7a8,8,0,0,0-15.383,4.4l.77,2.7a716.289,716.289,0,0,1,23.942,125.167l2.449,24.5a28.965,28.965,0,0,1-13.823-3.067l-2.069-1.034a8,8,0,0,0-7.694.295l-16.517,9.91a49.954,49.954,0,0,1-17.724,6.468V311.415a8,8,0,0,0-16,0V478.547a49.961,49.961,0,0,1-17.724-6.468l-16.516-9.91a8,8,0,0,0-7.268-.493l-13.311,5.7a30.5,30.5,0,0,1-3.266,1.18l2.708-27.082A716.285,716.285,0,0,1,95.82,316.312l.772-2.7a8,8,0,0,0-15.383-4.4l-.772,2.7A732.335,732.335,0,0,0,55.96,439.888l-2.834,28.345c-.015.148-.015.293-.022.439a29.55,29.55,0,0,1-8.064-3.736A28.561,28.561,0,0,1,32,440.717,1015.6,1015.6,0,0,1,59.584,205.772l9.983-41.93A323.761,323.761,0,0,0,78.357,88.9a56.9,56.9,0,1,1,113.8,0v7.331a324.046,324.046,0,0,0,5.709,60.481l13.462,70.677a1016.8,1016.8,0,0,1,17.915,189.8ZM93.386,209.822q-.927,3.963-1.822,7.934a8,8,0,1,1-15.609-3.512q.909-4.037,1.851-8.066a8,8,0,0,1,15.58,3.644Zm10.938-45.979-5.241,22.011a8,8,0,0,1-15.564-3.708l5.241-22.01a8,8,0,1,1,15.564,3.707Zm236.52,51.99q-.927,3.965-1.822,7.937a8,8,0,0,1-15.609-3.518q.91-4.035,1.851-8.064a8,8,0,0,1,15.58,3.645Zm10.938-45.98-5.24,22.01a8,8,0,1,1-15.564-3.705l5.24-22.011a8,8,0,0,1,15.564,3.706ZM135.257,53.086A35.854,35.854,0,0,0,99.443,88.9v18.543a35.814,35.814,0,1,0,71.628,0V88.9A35.854,35.854,0,0,0,135.257,53.086Zm19.814,54.357a19.814,19.814,0,1,1-39.628,0V88.9a19.814,19.814,0,1,1,39.628,0ZM477.8,224.4,464.34,153.718a307.956,307.956,0,0,1-5.426-57.487V88.9a72.982,72.982,0,0,0-72.9-72.9h0a73,73,0,0,0-72.9,72.976,307.6,307.6,0,0,1-8.354,71.161l-9.984,41.93a1031.646,1031.646,0,0,0-28.019,238.65,45.01,45.01,0,0,0,62.74,41.371l9.552-4.094,13.009,7.806a65.882,65.882,0,0,0,67.913,0l12.8-7.681A45.011,45.011,0,0,0,496,436.961V417.186A1032.883,1032.883,0,0,0,477.8,224.4ZM480,436.961a28.8,28.8,0,0,1-12.591,23.9l-2.1-20.976a732.366,732.366,0,0,0-24.478-127.974l-.772-2.7a8,8,0,1,0-15.382,4.4l.77,2.7a716.289,716.289,0,0,1,23.942,125.167l2.449,24.5a28.967,28.967,0,0,1-13.823-3.067l-2.069-1.034a8,8,0,0,0-7.694.295l-16.517,9.91A49.954,49.954,0,0,1,392,478.842V311.415a8,8,0,1,0-16,0V478.2a50.059,50.059,0,0,1-15.71-6.124l-16.517-9.91a8,8,0,0,0-7.267-.493l-13.312,5.7a30.409,30.409,0,0,1-3.265,1.18l2.708-27.082a716.285,716.285,0,0,1,23.94-125.167l.772-2.7a8,8,0,0,0-15.383-4.4l-.773,2.7a732.425,732.425,0,0,0-24.476,127.973l-2.834,28.345c-.015.148-.015.293-.022.439a29.536,29.536,0,0,1-8.064-3.736,28.561,28.561,0,0,1-13.04-24.219,1015.6,1015.6,0,0,1,27.584-234.945l9.983-41.93a323.761,323.761,0,0,0,8.79-74.942,56.9,56.9,0,1,1,113.8,0v7.331a324.046,324.046,0,0,0,5.709,60.481l13.462,70.677A1016.8,1016.8,0,0,1,480,417.186ZM386.014,53.086A35.854,35.854,0,0,0,350.2,88.9v18.543a35.814,35.814,0,1,0,71.628,0V88.9A35.854,35.854,0,0,0,386.014,53.086Zm19.814,54.357a19.814,19.814,0,1,1-39.628,0V88.9a19.814,19.814,0,1,1,39.628,0Z" style="fill:url(#linear-gradient)"/></g></svg>
