<svg height="512" viewBox="0 0 512 512" width="512" xmlns="http://www.w3.org/2000/svg" xmlns:xlink="http://www.w3.org/1999/xlink"><linearGradient id="linear-gradient" gradientUnits="userSpaceOnUse" x1="90.718" x2="374.782" y1="398.032" y2="113.968"><stop offset="0" stop-color="#41dfd0"/><stop offset="1" stop-color="#ee83ef"/></linearGradient><g id="gradient"><path d="m482.528 256 11.3-12.021a8 8 0 0 0 -2.575-12.788l-34.9-15.538a363.705 363.705 0 0 0 -113.7-29.974 101.482 101.482 0 0 0 -43.068-40.834 8 8 0 0 0 -11.168 9.685 79.3 79.3 0 0 1 3.907 29.47h-4.824a416.554 416.554 0 0 0 -185.35 43.755l-14.45 7.226-.274-.638a85.529 85.529 0 0 0 -61.853-50.188 8 8 0 0 0 -9.414 9.414l3.4 16.977a85.3 85.3 0 0 0 23.386 43.714l1.742 1.74-1.742 1.74a85.3 85.3 0 0 0 -23.394 43.714l-3.4 16.977a8 8 0 0 0 9.414 9.414 85.525 85.525 0 0 0 61.852-50.188l.274-.639 14.454 7.227q12.715 6.355 25.855 11.81v23.945a8 8 0 0 0 8 8h1.373a62.443 62.443 0 0 0 40.464-14.839 415.667 415.667 0 0 0 109.663 14.839h19.92c.5 0 .99-.008 1.485-.01l-4.493 13.48a8 8 0 0 0 7.588 10.53 53.3 53.3 0 0 0 40.97-19.136l6.469-7.729a7.99 7.99 0 0 0 .643-.9 364.261 364.261 0 0 0 96.269-27.889l34.9-15.538a8 8 0 0 0 2.575-12.788zm-159.868-71.685q-7.139-.292-14.318-.309a95.665 95.665 0 0 0 -.472-14.965 85.269 85.269 0 0 1 14.79 15.274zm-213.354 57.75a398.39 398.39 0 0 1 77.652-29.106 75.813 75.813 0 0 0 5.042 12.93l.845 1.689a8 8 0 1 0 14.31-7.156l-.844-1.69a59.746 59.746 0 0 1 -3.767-9.508q7.386-1.614 14.828-2.947a75.514 75.514 0 0 0 6.628 19.612l.845 1.689a8 8 0 1 0 14.31-7.156l-.844-1.69a59.566 59.566 0 0 1 -5.135-14.963q7.733-1.071 15.5-1.841a75.269 75.269 0 0 0 7.324 23.961l.845 1.689a8 8 0 1 0 14.31-7.156l-.844-1.69a59.366 59.366 0 0 1 -5.669-18.064q7.894-.461 15.8-.6a76.23 76.23 0 0 0 7.558 25.821l.845 1.689a8 8 0 1 0 14.31-7.156l-.844-1.689a60.1 60.1 0 0 1 -5.746-18.733h10.853q2.513 0 5.018.038a76.307 76.307 0 0 0 7.564 25.851l.845 1.689a8 8 0 1 0 14.31-7.156l-.844-1.69a60.082 60.082 0 0 1 -5.658-18.092 348.153 348.153 0 0 1 42.709 5.2 95.666 95.666 0 0 0 -11.262 42.16h-262.665zm-74.868 66.541.8-4.013a69.324 69.324 0 0 1 19.02-35.538l7.4-7.4a8 8 0 0 0 0-11.314l-7.4-7.4a69.324 69.324 0 0 1 -19.02-35.538l-.8-4.013a69.532 69.532 0 0 1 38.278 37.252l1.894 4.418a21.06 21.06 0 0 0 0 21.872l-1.895 4.418a69.527 69.527 0 0 1 -38.277 37.256zm109.562 2.924v-9.208q6.95 2.558 13.985 4.874a46.424 46.424 0 0 1 -13.985 4.334zm143.5.47a400.49 400.49 0 0 1 -178.193-42.065l-11.872-5.935h263.48a95.711 95.711 0 0 0 15.8 41.12 349.966 349.966 0 0 1 -69.3 6.88zm36.227 22.125 2.2-6.588q5.292-.262 10.56-.674a37.266 37.266 0 0 1 -12.762 7.262zm141.994-72.646 8.737 9.293-24.613 10.957a350.77 350.77 0 0 1 -56.1 19.51 79.994 79.994 0 0 1 -5.946-91.932 350.288 350.288 0 0 1 62.045 20.964l24.613 10.957-8.737 9.293a8 8 0 0 0 -.001 10.958zm-43.721-15.479a10 10 0 1 1 -10-10 10 10 0 0 1 10 10zm-102 34a8 8 0 0 1 -8 8h-8a8 8 0 0 1 0-16h8a8 8 0 0 1 8 8zm-40 0a8 8 0 0 1 -8 8h-32a8 8 0 0 1 0-16h32a8 8 0 0 1 8 8z" fill="url(#linear-gradient)"/></g></svg>