<?xml version="1.0" encoding="UTF-8"?>
<svg xmlns="http://www.w3.org/2000/svg" xmlns:xlink="http://www.w3.org/1999/xlink" viewBox="0 0 512 512" width="512" height="512"><defs><linearGradient id="linear-gradient" x1="72.186" y1="499.499" x2="465.534" y2="106.151" gradientUnits="userSpaceOnUse"><stop offset="0" stop-color="#41dfd0"/><stop offset="1" stop-color="#ee83ef"/></linearGradient></defs><g id="gradient"><path d="M462.949,112.039a40.009,40.009,0,0,0-75.5-7.2,40.029,40.029,0,0,0-28,38.161v31.373a.627.627,0,0,1-.627.627A37.791,37.791,0,0,0,344,178.016v-1.033l1.625-6.5a94.724,94.724,0,0,0-2.035-53.013,8,8,0,0,0-4.012-4.625l-5.228-2.615c-.722-.36-1.455-.7-2.18-1.05a85.047,85.047,0,0,0-83.582-69.313H231.412A85.047,85.047,0,0,0,147.83,109.18c-.725.353-1.458.69-2.18,1.05l-5.228,2.615a8,8,0,0,0-4.012,4.625,94.724,94.724,0,0,0-2.035,53.013l1.864,7.457A8,8,0,0,0,144,184v1.013a32,32,0,0,0,0,61.974V253a111.251,111.251,0,0,0,9.035,44.1,169.958,169.958,0,0,0-31.6,34.194,8,8,0,0,0,.905,10.232l18.365,18.365-2.695,2.689a41.9,41.9,0,0,0-7.7,10.571A153.246,153.246,0,0,0,64.027,487.335,8,8,0,0,0,72,496H408a8,8,0,0,0,7.973-8.665,153.553,153.553,0,0,0-66.161-114.119c-.043-.029-.088-.052-.13-.08a41.879,41.879,0,0,0-7.695-10.558l-2.7-2.689,18.365-18.365a8,8,0,0,0,.905-10.232A170.077,170.077,0,0,0,334.4,303.6c.309.02.618.046.926.064,3.846.22,7.751.332,11.608.332a42.425,42.425,0,0,0,42.423-42.422V240a8,8,0,0,0-5.906-7.713v-4.8a8.009,8.009,0,0,1,8-8H392a40.07,40.07,0,0,0,39.266-32.346l9.478-.464a41.269,41.269,0,0,0,22.2-74.635ZM330.687,373.905a26.019,26.019,0,0,1,5.9,27.74L306.455,480H289.206l14.628-102.4A8,8,0,0,0,304,376.1l0-.048c0-.141-.008-.283-.015-.424a7.983,7.983,0,0,0-2.333-5.419L280.5,349.1a89.132,89.132,0,0,0,15.606-9.7ZM206.958,480l-2.286-16h70.656l-2.286,16Zm-33.413,0-30.136-78.355a26.019,26.019,0,0,1,5.9-27.74l35.158-35.074A89.255,89.255,0,0,0,199.9,348.7L178.35,370.2a7.983,7.983,0,0,0-2.333,5.419c-.007.141-.016.283-.015.424l0,.048a8,8,0,0,0,.161,1.506L190.794,480Zm83.747-123.328,1.04-.2c1.891-.365,3.759-.8,5.611-1.283L283.2,374.4a91.6,91.6,0,0,1-86.4,0l19.423-19.378q3.189.885,6.458,1.54a89.27,89.27,0,0,0,34.612.11ZM277.614,448H202.386L200.1,432h79.8Zm4.571-32h-84.37l-3.569-24.984a107.614,107.614,0,0,0,91.508,0ZM296,317.8v-9.935a8,8,0,1,0-16,0v23.258a73.146,73.146,0,0,1-15.992,7.386l-.008,0V311.867a8,8,0,1,0-16,0v30.016a73.092,73.092,0,0,1-16-.059V311.867a8,8,0,1,0-16,0v26.321a73.248,73.248,0,0,1-16-7.867V307.867a8,8,0,0,0-16,0V316.3a95.366,95.366,0,0,1-13.563-19.8,7.929,7.929,0,0,0-.666-1.324A95.116,95.116,0,0,1,160,253V177.126a194.414,194.414,0,0,1,18.535-7.252l-10.227,35.8a8,8,0,0,0,2.035,7.855l1.375,1.375a41.612,41.612,0,0,1,12.017,24.978c-.245.014-.489.038-.736.04L167.956,240a8,8,0,0,0-6.356,12.8l13.5,18A43.208,43.208,0,0,0,209.5,288a42.721,42.721,0,0,0,30.407-12.6l.434-.434.433.433a42.682,42.682,0,0,0,27.932,12.519,205.433,205.433,0,0,0,40.114,12.364A94.987,94.987,0,0,1,296,317.8Zm34.633-153.457c-.872-.415-1.756-.805-2.633-1.208V124.944l1.374.687A78.726,78.726,0,0,1,330.633,164.345ZM312,156.577q-7.9-2.865-16-5.1V112.207q8.269,2.472,16.294,5.669C312.108,118.553,312,156.577,312,156.577ZM286.63,171.39a7.99,7.99,0,0,0-6.63-3.523H264a8,8,0,0,0,0,16h16a7.993,7.993,0,0,0,7.986-7.731l8.408,29.423a57.764,57.764,0,0,0-13.624,25.963,40.89,40.89,0,0,0-23.628-7.577l-18.2-.074,6.213-12.426a8,8,0,1,0-14.31-7.155l-8,16a7.961,7.961,0,0,0-.839,3.645l-2.461.01a40.9,40.9,0,0,0-23.1,7.2,57.448,57.448,0,0,0-13.484-25.538L192.6,178.9a8,8,0,0,0,7.4,4.97h16a8,8,0,0,0,0-16H200a7.954,7.954,0,0,0-4.687,1.527l1.306-4.572a193.012,193.012,0,0,1,88.223.309Zm-34.539,92.7-5.747-5.748A8,8,0,0,0,240.687,256H240a8,8,0,0,0-5.657,2.343l-5.748,5.748A26.826,26.826,0,0,1,209.5,272a27.134,27.134,0,0,1-21.6-10.8l-3.974-5.3a29.745,29.745,0,0,0,20.067-8.659,25.023,25.023,0,0,1,17.617-7.3h37.468a25.016,25.016,0,0,1,17.616,7.3h0a29.748,29.748,0,0,0,20.069,8.66l-3.975,5.3a27.13,27.13,0,0,1-21.6,10.8A26.825,26.825,0,0,1,252.091,264.091ZM280,147.724q-7.948-1.539-16-2.47V105.5q8.049,1,16,2.659Zm-32-3.686c-2.646-.1-5.294-.171-7.942-.171-2.687,0-5.373.072-8.058.176V104.18c2.606-.107,5.213-.18,7.82-.18h.36c2.607,0,5.214.073,7.82.18Zm-32,1.232q-8.043.933-16,2.479V108.154q7.941-1.663,16-2.659Zm-32,6.243q-8.1,2.234-16,5.106V117.755q7.873-3.118,16-5.548Zm-33.374-25.882,1.374-.687V160a7.955,7.955,0,0,0,.562,2.931c-1.063.484-2.13.96-3.184,1.463A78.732,78.732,0,0,1,150.626,125.631ZM319.852,244.442A8,8,0,0,0,312.73,240l-15.042-.083c-.05,0-.1-.008-.147-.008a41.839,41.839,0,0,1,13.252-26.157,8,8,0,0,0,2.272-8.083l-10.094-35.328A193.775,193.775,0,0,1,328,180.9v9.921a37.782,37.782,0,0,0-7.18,22.188v27a7.962,7.962,0,0,0,.533,2.851V256h-4.667l2.4-3.2A8,8,0,0,0,319.852,244.442ZM193,67.539a68.83,68.83,0,0,1,38.417-11.672h17.176a69.038,69.038,0,0,1,64.842,45.319q-5.712-2.115-11.541-3.9A85.336,85.336,0,0,0,275.036,68.24a8,8,0,1,0-8.9,13.3,69.05,69.05,0,0,1,11.712,9.9A210.138,210.138,0,0,0,240.18,88h-.36a211.7,211.7,0,0,0-73.25,13.186A69.163,69.163,0,0,1,193,67.539ZM136,216a16,16,0,0,1,8-13.835v27.67A16,16,0,0,1,136,216Zm2.5,119.05a153.956,153.956,0,0,1,22.127-23.417,111.928,111.928,0,0,0,12.217,16.2l-20.806,20.756Zm-12.574,61.773a41.9,41.9,0,0,0,2.553,10.565L156.4,480H136V455.867a8,8,0,1,0-16,0V480H80.965A137.092,137.092,0,0,1,125.923,396.823ZM399.033,480H360V455.867a8,8,0,1,0-16,0V480H323.6l27.927-72.611a41.923,41.923,0,0,0,2.552-10.55A137.42,137.42,0,0,1,399.033,480ZM341.5,335.05l-13.538,13.538-20.1-20.051a110.927,110.927,0,0,0,12.366-16.166A153.881,153.881,0,0,1,341.5,335.05Zm20.083-51.488A26.341,26.341,0,0,1,346.93,288c-3.553,0-7.151-.1-10.694-.306a180.236,180.236,0,0,1-40.861-7.186A42.841,42.841,0,0,0,304.628,272h24.725a8,8,0,0,0,8-8v-16h36v13.573A26.369,26.369,0,0,1,361.586,283.562Zm78.375-112.869-16.353.8a8,8,0,0,0-7.608,7.99,24.027,24.027,0,0,1-24,24h-.553a24.027,24.027,0,0,0-24,24V232H336.82v-19a22.025,22.025,0,0,1,22-22,16.646,16.646,0,0,0,16.627-16.627V143.005a24,24,0,0,1,19.5-23.571,8,8,0,0,0,6.146-5.473,24,24,0,0,1,46.686,3.938,8,8,0,0,0,3.84,5.812,25.272,25.272,0,0,1-11.654,46.982ZM217,200.867a9,9,0,1,1-9-9A9,9,0,0,1,217,200.867Zm45,0a9,9,0,1,1,9,9A9,9,0,0,1,262,200.867Z" style="fill:url(#linear-gradient)"/></g></svg>
