<?xml version="1.0" encoding="UTF-8"?>
<svg xmlns="http://www.w3.org/2000/svg" xmlns:xlink="http://www.w3.org/1999/xlink" viewBox="0 0 512 512" width="512" height="512"><defs><linearGradient id="linear-gradient" x1="110.37" y1="386.182" x2="401.634" y2="94.919" gradientUnits="userSpaceOnUse"><stop offset="0" stop-color="#41dfd0"/><stop offset="1" stop-color="#ee83ef"/></linearGradient></defs><g id="gradient"><path d="M441.781,150.765l-35.85-7.417a735.771,735.771,0,0,0-299.855,0l-35.853,7.418A68.265,68.265,0,0,0,16,217.354V255.36a87.424,87.424,0,0,0,25.774,62.226l29,29A101.453,101.453,0,0,0,142.985,376.5a102.511,102.511,0,0,0,49.607-12.876,58.874,58.874,0,0,0,16.78,33.563,65.944,65.944,0,0,0,93.256,0,58.867,58.867,0,0,0,16.78-33.565A102.518,102.518,0,0,0,369.019,376.5a101.455,101.455,0,0,0,72.209-29.909l29-29A87.421,87.421,0,0,0,496,255.36V217.354A68.265,68.265,0,0,0,441.781,150.765Zm-150.468,235.1a49.938,49.938,0,0,1-70.626,0A43.025,43.025,0,0,1,208,355.242v-2.1l37.384-29.9a16.908,16.908,0,0,1,21.24,0L304,353.139v2.1A43.025,43.025,0,0,1,291.313,385.869ZM480,255.36a71.522,71.522,0,0,1-21.089,50.911l-29,29A85.552,85.552,0,0,1,369.019,360.5a86.432,86.432,0,0,1-53.8-18.871l-38.6-30.882a32.82,32.82,0,0,0-41.228,0l-38.607,30.883a86.432,86.432,0,0,1-53.8,18.871,85.549,85.549,0,0,1-60.894-25.224l-29-29A71.522,71.522,0,0,1,32,255.36V217.354a52.2,52.2,0,0,1,41.465-50.921l35.853-7.418a719.853,719.853,0,0,1,293.37,0l35.851,7.417A52.2,52.2,0,0,1,480,217.354Zm-46.548-75.531-32.331-6.466A736.666,736.666,0,0,0,208,160.5a8.044,8.044,0,0,0-1.086.074,743.075,743.075,0,0,0-96.039,12.785l-32.328,6.466A38.1,38.1,0,0,0,48,217.092v46.837a47.679,47.679,0,0,0,14.059,33.94l23.782,23.783c.014.015.03.028.044.042.031.031.063.06.094.09A77.487,77.487,0,0,0,141,344.5h.45A78.283,78.283,0,0,0,190.172,327.4l39.591-31.674a41.772,41.772,0,0,1,52.474,0l39.6,31.675A78.279,78.279,0,0,0,370.558,344.5h.451a77.49,77.49,0,0,0,55.155-22.846l23.78-23.781A47.679,47.679,0,0,0,464,263.929V217.092A38.1,38.1,0,0,0,433.456,179.829ZM102.443,315.045,212.054,176.272q14.143-.867,28.3-1.169L119.22,324.566A61.446,61.446,0,0,1,102.443,315.045ZM64,263.929V217.092a22.059,22.059,0,0,1,17.686-21.573l32.327-6.466a728.891,728.891,0,0,1,76.329-11.108L90.794,303.978,73.372,286.556A31.786,31.786,0,0,1,64,263.929Zm192,6.509a57.873,57.873,0,0,0-36.232,12.8l-39.592,31.674A62.223,62.223,0,0,1,141.445,328.5H141c-1.421,0-2.832-.065-4.237-.159L261.065,174.953a723.429,723.429,0,0,1,136.922,14.1l19.842,3.968L324.072,308.708l-31.841-25.471A57.868,57.868,0,0,0,256,270.438Zm192-6.509a31.783,31.783,0,0,1-9.373,22.627l-23.78,23.782A61.6,61.6,0,0,1,371.009,328.5h-.451a62.25,62.25,0,0,1-33.794-10.037l98.358-121.366a22.06,22.06,0,0,1,12.882,20ZM285.657,366.84a8,8,0,0,1-11.314,11.314A35.082,35.082,0,0,1,264,353.184V348.5a8,8,0,0,1,16,0v4.687A19.185,19.185,0,0,0,285.657,366.84ZM248,348.5v4.687a35.082,35.082,0,0,1-10.343,24.97,8,8,0,0,1-11.314-11.314A19.185,19.185,0,0,0,232,353.184V348.5a8,8,0,0,1,16,0Z" style="fill:url(#linear-gradient)"/></g></svg>
