<?xml version="1.0" encoding="UTF-8"?>
<svg xmlns="http://www.w3.org/2000/svg" xmlns:xlink="http://www.w3.org/1999/xlink" viewBox="0 0 512 512" width="512" height="512"><defs><linearGradient id="linear-gradient" x1="29.851" y1="505.164" x2="461.28" y2="73.735" gradientUnits="userSpaceOnUse"><stop offset="0" stop-color="#41dfd0"/><stop offset="1" stop-color="#ee83ef"/></linearGradient></defs><g id="gradient"><path d="M488,384H436.446a46.333,46.333,0,1,0-80.892,0H268.6a35.116,35.116,0,0,1-1.438-28.843l6.187,9.281a8,8,0,0,0,13.312-8.876l-3.066-4.6,1.88.627a8,8,0,0,0,5.06-15.18L278.81,332.5l6.847-6.847a8,8,0,0,0-11.314-11.314L264,324.687l-10.343-10.344A8,8,0,0,0,240,320a8,8,0,0,0-8-8h-9.052l7.708-11.562a8,8,0,0,0-13.312-8.876l-6.927,10.391-2.828-8.483a8,8,0,1,0-15.178,5.06l2.94,8.821-8.821-2.941a8,8,0,0,0-5.06,15.18l11.72,3.906-6.847,6.847a8,8,0,0,0,11.314,11.314l8.7-8.7A86.958,86.958,0,0,1,216,372.845V384H189.293a339.665,339.665,0,0,1-13.686-223.843L192,166.486V176a8,8,0,0,0,4.422,7.155l16,8a8,8,0,0,0,5.518.606l9.226-2.306,5.406,13.516a8.01,8.01,0,0,0,1.771,2.686l16,16A8,8,0,0,0,264,216V189.891a71.8,71.8,0,0,0-37.434-63.059L207.7,116.539l6.285-3.512,4.2,4.456A7.994,7.994,0,0,0,223.724,120l29,1a8.015,8.015,0,0,0,5.342-1.8l3.254-2.662,3.525,7.049a8,8,0,0,0,5.215,4.183l32,8a8,8,0,0,0,9.785-9.329l-1.65-8.251a69.526,69.526,0,0,0-86.177-53.535l0-1.722L244.6,56.829a8.011,8.011,0,0,0,3.023-1.673l21.669-19.13a8,8,0,0,0-3.979-13.888l-32.142-5.357a57.44,57.44,0,0,0-63.436,37.064l-5.7,15.888-5.79-15.923A57.441,57.441,0,0,0,94.827,16.781L62.685,22.138a8,8,0,0,0-4.342,13.549l24,24a8.01,8.01,0,0,0,3.717,2.1l1.983.5a69.591,69.591,0,0,0-70.238,55.9l-1.65,8.25a8,8,0,0,0,9.785,9.329l32-8a8,8,0,0,0,5.215-4.183l4.423-8.845,8.844,4.422A7.994,7.994,0,0,0,80,120h24a8,8,0,0,0,5.749-2.437l5.312-5.489,3.025,1.947a25.821,25.821,0,0,0,.5,3.456l-17.153,9.355A71.8,71.8,0,0,0,64,189.891V216a8,8,0,0,0,13.657,5.657l16-16a8,8,0,0,0,1.932-3.127l5.083-15.25,7.75,3.875a8,8,0,0,0,7.156,0l5.29-2.645a410.5,410.5,0,0,0,12.154,195.181l.1.309H24a8,8,0,0,0-8,8v96a8,8,0,0,0,8,8H488a8,8,0,0,0,8-8V392A8,8,0,0,0,488,384ZM365.667,361.333A30.333,30.333,0,1,1,416.162,384H375.838A30.068,30.068,0,0,1,365.667,361.333ZM221.749,328H232a8,8,0,0,0,8-8,7.974,7.974,0,0,0,2.343,5.656l6.847,6.847-11.72,3.906a8,8,0,0,0,5.06,15.18l10.175-3.392a51.059,51.059,0,0,0-1.42,35.8H232V372.845A102.9,102.9,0,0,0,221.749,328ZM134,112a10,10,0,1,1,10,10A10.011,10.011,0,0,1,134,112Zm21.143,64q-1.756,7.974-3.152,16H136.5q1.433-8.022,3.189-16Zm-6.558,112H131.256q-.541-7.992-.746-16h16.841Q147.791,280.013,148.585,288Zm-1.749-32H130.393q.108-8,.544-16h16.1Q146.755,248,146.836,256Zm-14.154,48h17.864q1.173,8.026,2.717,16H134.748Q133.548,312.018,132.682,304ZM176,122a10.994,10.994,0,0,1,1.488,21.887,7.927,7.927,0,0,0-2.906.011A10.995,10.995,0,0,1,176,122Zm-16.306,32.5c.242.185.489.362.737.538-.471,1.65-.918,3.305-1.365,4.961h-2.122Zm-25.683,53.24A8,8,0,0,0,136,208h13.6q-1.008,7.986-1.643,16H132.129Q132.9,215.858,134.011,207.741ZM137.5,336h19.247q1.941,8.04,4.262,16H140.927Q139.045,344.031,137.5,336ZM248,189.891v6.8l-1.182-1.183-7.39-18.475a8,8,0,0,0-9.368-4.79l-13.129,3.282L208,171.056V161a8,8,0,0,0-5.119-7.463l-6.726-2.6A26.888,26.888,0,0,0,203,133c0-.271-.013-.539-.021-.808l15.926,8.687A55.8,55.8,0,0,1,248,189.891ZM263.088,82.6a53.53,53.53,0,0,1,30.4,34.527l-15.98-4-6.355-12.709a8,8,0,0,0-12.221-2.613l-8.668,7.092-22.7-.783-6.214-6.6a8,8,0,0,0-9.727-1.5l-7.249,4.049L214.72,85.584l3.323-1.662A53.454,53.454,0,0,1,263.088,82.6Zm-78.3-23.321a41.439,41.439,0,0,1,45.757-26.714l15.56,2.593-7.741,6.833-24.591,7.283a8,8,0,0,0-5.728,7.645l-.035,10.536-27.771,38.881a26.961,26.961,0,0,0-10.76.466,25.777,25.777,0,0,0-.868-3.173,8,8,0,0,0,.922-1.794ZM80.649,35.365l16.809-2.8a41.438,41.438,0,0,1,45.756,26.714L153.6,87.845a25.908,25.908,0,0,0-19.08-.049L125.2,74.744l-.024-.034-5.2-7.275-.065-7.5a8,8,0,0,0-6.059-7.691L92.09,46.806Zm27.477,60.868L100.609,104H81.889L67.578,96.845a8,8,0,0,0-10.733,3.577L50.49,113.131l-15.98,4a53.554,53.554,0,0,1,75.447-33.2l3.322,1.661,8.352,11.692-3.426-2.205A8,8,0,0,0,108.126,96.233ZM120,171.056l-8,4-12.422-6.211a8,8,0,0,0-11.167,4.625l-7.4,22.209L80,196.687v-6.8a55.8,55.8,0,0,1,29.1-49.012l17.527-9.559a25.954,25.954,0,0,0,22.749,6.119q.117.7.27,1.391L141.809,154.5l-8.152-8.152A8,8,0,0,0,120,152ZM148.294,378.92q-1.7-5.44-3.228-10.92h21.011q2.766,8.055,5.91,16h-22.1ZM292.223,400a49.592,49.592,0,0,1,36.651,16H95.126a49.592,49.592,0,0,1,36.651-16ZM480,480H32V464H192a8,8,0,0,0,0-16H32V400H88.667a65.923,65.923,0,0,0-13.395,16H56a8,8,0,0,0,0,16H344a8,8,0,0,0,7.155-11.578A66.1,66.1,0,0,0,335.333,400H480v16H440a8,8,0,0,0,0,16h40Zm-72-48H384a8,8,0,0,1,0-16h24a8,8,0,0,1,0,16Zm-3.688,15.236h40a8,8,0,0,1,0,16h-40a8,8,0,0,1,0-16ZM396,261.333a8,8,0,0,1,8,8v23a8,8,0,1,1-16,0v-23A8,8,0,0,1,396,261.333ZM341.553,318.2,325.29,301.937A8,8,0,1,1,336.6,290.622l16.263,16.264A8,8,0,1,1,341.553,318.2ZM327,353.333a8,8,0,0,1,0,16H304a8,8,0,0,1,0-16Zm169,8a8,8,0,0,1-8,8H465a8,8,0,0,1,0-16h23A8,8,0,0,1,496,361.333Zm-29.29-70.711a8,8,0,0,1,0,11.315L450.447,318.2a8,8,0,0,1-11.313-11.314L455.4,290.622A8,8,0,0,1,466.71,290.622ZM384,182.42a19.352,19.352,0,0,1,21.657,3.923,8,8,0,0,1-11.314,11.314,3.315,3.315,0,0,0-4.686,0,8,8,0,0,1-11.314,0,3.315,3.315,0,0,0-4.686,0,8,8,0,0,1-11.314-11.314A19.349,19.349,0,0,1,384,182.42Zm85.657,31.236a8,8,0,0,1-11.314,0,3.315,3.315,0,0,0-4.686,0,8,8,0,0,1-11.314,0,3.315,3.315,0,0,0-4.686,0,8,8,0,0,1-11.314-11.314A19.346,19.346,0,0,1,448,198.42a19.351,19.351,0,0,1,21.657,3.923A8,8,0,0,1,469.657,213.656Zm-40-48a8,8,0,0,1-11.314,0,3.315,3.315,0,0,0-4.686,0,8,8,0,0,1-11.314-11.314A19.345,19.345,0,0,1,424,150.42a19.35,19.35,0,0,1,21.657,3.923,8,8,0,0,1-11.314,11.314A3.315,3.315,0,0,0,429.657,165.657ZM291.565,221.32A28.1,28.1,0,0,0,272,248a8,8,0,0,0,8,8h80a8,8,0,0,0,8-8,28.1,28.1,0,0,0-19.565-26.68,32,32,0,0,0-56.87,0Zm43.567,9.482a8,8,0,0,0,6.494,5.329A11.945,11.945,0,0,1,348.917,240H291.083a11.945,11.945,0,0,1,7.291-3.869,8,8,0,0,0,6.494-5.329,16,16,0,0,1,30.264,0ZM480,104a28.1,28.1,0,0,0-19.565-26.68,32,32,0,0,0-56.87,0A28.1,28.1,0,0,0,384,104a8,8,0,0,0,8,8h80A8,8,0,0,0,480,104Zm-76.917-8a11.945,11.945,0,0,1,7.291-3.869,8,8,0,0,0,6.494-5.329,16,16,0,0,1,30.264,0,8,8,0,0,0,6.494,5.329A11.945,11.945,0,0,1,460.917,96ZM368,456a8,8,0,0,1-8,8H304a8,8,0,0,1,0-16h56A8,8,0,0,1,368,456Zm-104,0a8,8,0,0,1-8,8H232a8,8,0,0,1,0-16h24A8,8,0,0,1,264,456ZM80,248a8,8,0,0,1-8,8H40a8,8,0,0,1,0-16H72A8,8,0,0,1,80,248ZM64,272H88a8,8,0,0,1,0,16H64a8,8,0,0,1,0-16ZM376,144a8,8,0,0,1-8,8H352a8,8,0,0,1,0-16h16A8,8,0,0,1,376,144Zm-8-32a8,8,0,0,1-8,8H336a8,8,0,0,1,0-16h24A8,8,0,0,1,368,112ZM24,304H80a8,8,0,0,1,0,16H24a8,8,0,0,1,0-16Z" style="fill:url(#linear-gradient)"/></g></svg>
