<svg height="512" viewBox="0 0 512 512" width="512" xmlns="http://www.w3.org/2000/svg" xmlns:xlink="http://www.w3.org/1999/xlink"><linearGradient id="linear-gradient" gradientUnits="userSpaceOnUse" x1="97.588" x2="414.371" y1="414.524" y2="97.74"><stop offset="0" stop-color="#41dfd0"/><stop offset="1" stop-color="#ee83ef"/></linearGradient><g id="gradient"><path d="m486.077 212.977a122.334 122.334 0 0 0 -19.424-31.277l-47.882-56.089a23.969 23.969 0 0 0 -28.935-33.649 109.916 109.916 0 0 0 -68.326-57.427l-10.134-2.9a222.964 222.964 0 0 0 -111.1-2.861 109.68 109.68 0 0 0 -75.895 63.453l-.218.508a23.961 23.961 0 0 0 -31.369 32.025l-36.423 33.455a122.776 122.776 0 0 0 -33.343 51.473l-.875 2.624a122.476 122.476 0 0 0 23.041 118.25l47.955 56.175a23.983 23.983 0 0 0 30.769 32.9 109.91 109.91 0 0 0 68.64 58.092l10.133 2.9a222.941 222.941 0 0 0 111.1 2.861 109.675 109.675 0 0 0 75.81-63.266 23.952 23.952 0 0 0 29.526-32.788l36.346-33.383a122.772 122.772 0 0 0 33.34-51.47l.877-2.628a122.356 122.356 0 0 0 -3.613-86.978zm-105.647 167.606a177.9 177.9 0 0 1 -25.557 21.184l-49.307-63.393a97.332 97.332 0 0 0 30.361-29.044l65.124 46.516a178.073 178.073 0 0 1 -20.621 24.737zm-248.9 0a178.126 178.126 0 0 1 -19.2-22.7l63.27-49.213a97.239 97.239 0 0 0 31.073 29.878l-46.587 65.221a177.629 177.629 0 0 1 -28.557-23.186zm0-248.9a177.853 177.853 0 0 1 25.82-21.365l46.536 65.15a97.118 97.118 0 0 0 -30.66 31.932l-63.445-49.345a177.878 177.878 0 0 1 21.748-26.374zm204.45 124.451a80 80 0 1 1 -23.431-56.569 79.48 79.48 0 0 1 23.43 56.567zm-80-96a95.793 95.793 0 0 0 -37.862 7.733l-47.1-65.943a176.5 176.5 0 0 1 173.211 1.86l-49.977 64.257a95.8 95.8 0 0 0 -38.273-7.909zm-154.569 11.683 64.731 50.345a96.621 96.621 0 0 0 1.745 72.239l-64.257 49.977a176.51 176.51 0 0 1 -2.219-172.561zm119.831 173.863a96.722 96.722 0 0 0 69.676-.08l50.257 64.616a176.606 176.606 0 0 1 -167.248 1.7zm188.309-3.423-65.84-47.028a96.656 96.656 0 0 0 1.817-73.834l66.241-47.315a176.622 176.622 0 0 1 -2.218 168.177zm-71.151-135.43a97.255 97.255 0 0 0 -29.879-31.073l49.212-63.273a178.3 178.3 0 0 1 45.888 47.76zm64.662-97.773a8.01 8.01 0 0 1 0 11.314l-5.781 5.78c-1.8-1.956-3.64-3.888-5.533-5.78s-3.825-3.73-5.781-5.533l5.78-5.781a8.011 8.011 0 0 1 11.311 0zm-199.194-64.686a206.908 206.908 0 0 1 103.112 2.656l10.135 2.895a93.811 93.811 0 0 1 59.53 51.606l-2.917 2.917a192.131 192.131 0 0 0 -235.5 0l-1.176-1.176 2.028-4.732a93.622 93.622 0 0 1 64.788-54.166zm-94.968 64.686a8.011 8.011 0 0 1 11.315 0l5.785 5.781c-1.956 1.8-3.889 3.64-5.781 5.533s-3.73 3.824-5.533 5.78l-5.781-5.78a8.011 8.011 0 0 1 -.005-11.314zm-68.422 183.93a106.36 106.36 0 0 1 -3.145-75.613l.875-2.625a106.72 106.72 0 0 1 28.986-44.746l35.815-32.9 1.281 1.28a192.129 192.129 0 0 0 0 235.5l-.582.581-46.345-54.288a106.333 106.333 0 0 1 -16.885-27.189zm68.422 110.226a8.009 8.009 0 0 1 0-11.313l5.782-5.782c1.8 1.957 3.641 3.889 5.533 5.781s3.825 3.73 5.781 5.533l-5.78 5.781a8.01 8.01 0 0 1 -11.316 0zm201.3 64.69a206.927 206.927 0 0 1 -103.111-2.656l-10.134-2.895a93.8 93.8 0 0 1 -60.17-53.075l1.448-1.448a192.131 192.131 0 0 0 235.5 0l2.652 2.652-1.4 3.256a93.626 93.626 0 0 1 -64.785 54.166zm92.861-64.686a8.011 8.011 0 0 1 -11.315 0l-5.781-5.781c1.956-1.8 3.889-3.64 5.781-5.533s3.73-3.824 5.533-5.78l5.781 5.78a8.011 8.011 0 0 1 -.001 11.31zm71.458-108.32-.877 2.628a106.728 106.728 0 0 1 -28.987 44.747l-35.755 32.838-1.227-1.227a192.13 192.13 0 0 0 0-235.5l.522-.522 46.293 54.228a106.478 106.478 0 0 1 20.033 102.8zm-60.519-13.509c-.444 2.8-.972 5.632-1.568 8.421a8 8 0 0 1 -15.647-3.348c.538-2.512 1.013-5.062 1.412-7.579a8 8 0 1 1 15.8 2.506zm-14.214-32.839a144.007 144.007 0 0 0 -4.842-30.314 8 8 0 0 1 15.44-4.2 160.1 160.1 0 0 1 5.381 33.687 8 8 0 0 1 -7.575 8.4c-.141.007-.282.011-.421.011a8 8 0 0 1 -7.986-7.584z" fill="url(#linear-gradient)"/></g></svg>