<?xml version="1.0" encoding="UTF-8"?>
<svg xmlns="http://www.w3.org/2000/svg" xmlns:xlink="http://www.w3.org/1999/xlink" viewBox="0 0 512 512" width="512" height="512"><defs><linearGradient id="linear-gradient" x1="33.478" y1="498.519" x2="447.656" y2="84.342" gradientUnits="userSpaceOnUse"><stop offset="0" stop-color="#41dfd0"/><stop offset="1" stop-color="#ee83ef"/></linearGradient></defs><g id="gradient"><path d="M150.431,135.845l-120-24a8,8,0,1,1,3.138-15.69l120,24a8,8,0,1,1-3.138,15.69Zm-71.156-4.176-48,4.364A8,8,0,0,0,31.99,152c.243,0,.489-.01.735-.033l48-4.363a8,8,0,0,0-1.45-15.935ZM352,260a35.991,35.991,0,0,1,39.846-35.793,40.012,40.012,0,0,1,68.985,8.156,32.023,32.023,0,0,1,25.347,42.3A8,8,0,0,1,478.635,280H362.694a8,8,0,0,1-7.226-4.568A35.7,35.7,0,0,1,352,260Zm16,0a20.2,20.2,0,0,0,.4,4H472a16.018,16.018,0,0,0-16-16c-.226,0-.45.009-.673.018a7.973,7.973,0,0,1-8.078-6,24.005,24.005,0,0,0-44.483-5.2,8,8,0,0,1-9.267,3.957A20,20,0,0,0,368,260ZM150.857,297.143a28.493,28.493,0,0,1-1.628,9.523A8,8,0,0,1,141.687,312H42.31a8,8,0,0,1-7.227-4.568A32.011,32.011,0,0,1,64,261.714q1.387,0,2.769.121A35.441,35.441,0,0,1,127.227,269,28.618,28.618,0,0,1,150.857,297.143ZM134.806,296a12.589,12.589,0,0,0-12.52-11.429c-.178,0-.354.008-.531.015a8,8,0,0,1-8.077-6,19.433,19.433,0,0,0-36.01-4.206,8,8,0,0,1-9.269,3.957A16,16,0,0,0,48,293.714,16.326,16.326,0,0,0,48.16,296ZM405.657,97.8l.929-.929a2,2,0,0,1,2.828,0l.929.929a8,8,0,0,0,11.314,0l.929-.929a2,2,0,0,1,2.828,0l.929.929a8,8,0,0,0,11.314-11.314l-.928-.928A18.033,18.033,0,0,0,416,82.158a18.032,18.032,0,0,0-20.729,3.4l-.928.928A8,8,0,0,0,405.657,97.8Zm36.686,35.858a8,8,0,0,0,11.314,0l.929-.929a2,2,0,0,1,2.828,0l.929.929a8,8,0,0,0,11.314,0l.929-.929a2,2,0,0,1,2.828,0l.929.929a8,8,0,0,0,11.314-11.314l-.928-.928a18.033,18.033,0,0,0-20.729-3.4,18.032,18.032,0,0,0-20.729,3.4l-.928.928A8,8,0,0,0,442.343,133.657Zm-44.686,24,.929-.929a2,2,0,0,1,2.828,0l.929.929a8,8,0,0,0,11.314,0l.929-.929a2,2,0,0,1,2.828,0l.929.929a8,8,0,1,0,11.314-11.314l-.928-.928a18.031,18.031,0,0,0-20.729-3.4,18.031,18.031,0,0,0-20.729,3.4l-.928.928a8,8,0,0,0,11.314,11.314ZM27.911,470.745a65.406,65.406,0,0,0,63.555,0,8.013,8.013,0,0,1,7.827,0,65.334,65.334,0,0,0,41.857,7.46c.039-.055.072-.113.113-.167A116.406,116.406,0,0,1,208.156,434.9l6.853-219.3a105.177,105.177,0,0,1-51.956-48.918L24.992,183.938a8.108,8.108,0,0,1-1,.063,8,8,0,0,1-.982-15.939l192-24c.025,0,.05,0,.076-.006.136-.015.274-.022.412-.031s.292-.02.436-.022c.023,0,.045,0,.068,0h8V128l-.025,0H216a7.872,7.872,0,0,1-6.824-3.843L21.843,71.7A8,8,0,1,1,26.157,56.3L155.682,92.563A104,104,0,1,1,296.991,215.586L303.844,434.9a116.519,116.519,0,0,1,64.363,39.924,63.864,63.864,0,0,0,8.782-4.071,8.017,8.017,0,0,1,7.751-.049c.027.014.064.035.09.05a65.409,65.409,0,0,0,63.547,0l.145-.079a8.033,8.033,0,0,1,7.691.072l3.519,1.972a57.2,57.2,0,0,0,27.9,7.283c.123,0,.243,0,.366,0a8,8,0,0,1,.044,16h-.409a73.225,73.225,0,0,1-35.467-9.181,81.635,81.635,0,0,1-71.257-.064,81.614,81.614,0,0,1-71.391,0,81.632,81.632,0,0,1-71.379,0,81.639,81.639,0,0,1-71.381,0,81.63,81.63,0,0,1-71.383,0,81.56,81.56,0,0,1-75.289-2.05,8,8,0,0,1,7.822-13.958ZM278.312,448H233.688a100.334,100.334,0,0,0-63.226,22.634c.072.038.144.074.214.113a65.4,65.4,0,0,0,63.553,0,8,8,0,0,1,7.823,0,65.407,65.407,0,0,0,63.553,0c.111-.062.221-.121.333-.177a8.015,8.015,0,0,1,7.5.18,65.194,65.194,0,0,0,36.932,8.025A100.381,100.381,0,0,0,278.312,448ZM264,376v8h22.246l-1-32H226.754l-1,32H248v-8a8,8,0,0,1,16,0Zm22.226-264a31.034,31.034,0,0,0-60.452,0ZM264,128v16h8V128Zm0,200v8h20.746l-1-32H228.254l-1,32H248v-8a8,8,0,0,1,16,0Zm-34.246-72-1,32H248v-8a8,8,0,0,1,16,0v8h19.246l-1-32Zm50.492-64H231.754l-1.5,48H248v-8a8,8,0,0,1,16,0v8h17.746l-.918-29.371V210.6ZM171.087,96.877l39.228,10.983A47.2,47.2,0,0,1,248,72.692V56a8,8,0,0,1,16,0V72.692a47.189,47.189,0,0,1,38.12,37.118l1.725,8.621A8,8,0,0,1,296,128h-8v16h8a8,8,0,0,1,8,8v16a7.994,7.994,0,0,1-.845,3.578l-7.1,14.192.387,12.39A88,88,0,1,0,171.087,96.877ZM240,144h8V128h-8Zm-16,22.111L228.944,176h54.112L288,166.111V160H224Zm-8.446,32.036.387-12.377-7.1-14.192A7.994,7.994,0,0,1,208,168v-6.938l-27.888,3.486A89.258,89.258,0,0,0,215.554,198.147ZM224.241,432.4c3.133-.26,6.283-.4,9.447-.4H248v-8a8,8,0,0,1,16,0v8h14.312c3.164,0,6.314.14,9.447.4L286.746,400H225.254ZM96,360a8,8,0,0,0,0-16H88a8,8,0,0,0,0,16Zm56-16H128a8,8,0,0,0,0,16h24a8,8,0,0,0,0-16ZM48,384a8,8,0,0,0,8,8h64a8,8,0,0,0,0-16H56A8,8,0,0,0,48,384Zm96,0a8,8,0,0,0,8,8h32a8,8,0,0,0,0-16H152A8,8,0,0,0,144,384Zm256-64a8,8,0,0,0-8-8H368a8,8,0,0,0,0,16h24A8,8,0,0,0,400,320Zm72,0a8,8,0,0,0-8-8H424a8,8,0,0,0,0,16h40A8,8,0,0,0,472,320Zm-88,40h48a8,8,0,0,0,0-16H384a8,8,0,0,0,0,16Zm80,0h16a8,8,0,0,0,0-16H464a8,8,0,0,0,0,16Z" style="fill:url(#linear-gradient)"/></g></svg>
