<?xml version="1.0" encoding="UTF-8"?>
<svg xmlns="http://www.w3.org/2000/svg" xmlns:xlink="http://www.w3.org/1999/xlink" viewBox="0 0 512 512" width="512" height="512"><defs><linearGradient id="linear-gradient" x1="52.42" y1="459.58" x2="459.58" y2="52.42" gradientUnits="userSpaceOnUse"><stop offset="0" stop-color="#41dfd0"/><stop offset="1" stop-color="#ee83ef"/></linearGradient></defs><g id="gradient"><path d="M440,56a8,8,0,0,0-8,8V80H80V64a8,8,0,0,0-8-8,56.063,56.063,0,0,0-56,56V400a56.063,56.063,0,0,0,56,56H440a56.063,56.063,0,0,0,56-56V112A56.063,56.063,0,0,0,440,56Zm-8,252.687-10.161,10.16L402.53,312.41A8.027,8.027,0,0,0,400,312H361.3L344,306.234V304h16a8,8,0,0,0,6.656-3.562L380.281,280H392a8,8,0,0,0,6.656-3.562L412.281,256H432ZM80,292.944l8-4,9.131,4.566,6.01,24.036L92.687,328H80ZM32,112A40.071,40.071,0,0,1,64,72.8V344.569a55.91,55.91,0,0,0-32,16.277ZM440,440H72a40,40,0,0,1,0-80,8,8,0,0,0,8-8v-8H96a8,8,0,0,0,5.657-2.343l16-16a8,8,0,0,0,2.1-7.6l-8-32a8,8,0,0,0-4.183-5.215l-16-8a8,8,0,0,0-7.156,0L80,275.056V96H432V240H408a8,8,0,0,0-6.656,3.562L387.719,264H376a8,8,0,0,0-6.656,3.562L355.719,288H336a8,8,0,0,0-8,8v16a8,8,0,0,0,5.47,7.59l24,8A8.027,8.027,0,0,0,360,328h38.7l22.768,7.59a8,8,0,0,0,8.187-1.933L432,331.314V352a8,8,0,0,0,8,8,40,40,0,0,1,0,80Zm40-79.154a55.91,55.91,0,0,0-32-16.277V72.8A40.071,40.071,0,0,1,480,112ZM368,136a8,8,0,0,1,8-8h8v-8a8,8,0,0,1,16,0v8h8a8,8,0,0,1,0,16h-8v8a8,8,0,0,1-16,0v-8h-8A8,8,0,0,1,368,136ZM321.569,263.845l40-8a8,8,0,0,0,5.087-3.407l16-24a8,8,0,0,0,.5-8.016l-15.607-31.214-7.787-31.148a8,8,0,0,0-2.1-3.717l-16-16a8.025,8.025,0,0,0-3.127-1.933l-48-16a8,8,0,0,0-9.186,3.152L267.719,144H256a8.005,8.005,0,0,0-4.438,1.344l-20.137,13.425-27.4-13.7-23.585-15.723a8.007,8.007,0,0,0-6.968-.934l-24,8a8.025,8.025,0,0,0-3.127,1.933l-15.44,15.44-23.341,15.561a8,8,0,0,0-2.717,10.234L112,193.889v4.222l-7.155,14.311a8,8,0,0,0,0,7.156l24,48a8,8,0,0,0,3.577,3.577l32,16a8,8,0,0,0,5.7.559l40-11a8.129,8.129,0,0,0,1.085-.385l4.794-2.1V285.45A18.57,18.57,0,0,1,197.45,304H176a56,56,0,0,0,0,112h48a8,8,0,0,0,0-16H176a40,40,0,0,1,0-80h21.45A34.589,34.589,0,0,0,232,285.45V267.232l25.19-11.021,61.818,7.727A7.975,7.975,0,0,0,321.569,263.845Zm-64.577-23.783a7.983,7.983,0,0,0-4.2.609L232,249.768V240a8.043,8.043,0,0,0-.12-1.335,24,24,0,1,0-15.76,0A8.043,8.043,0,0,0,216,240v16.768l-10.678,4.671-36.487,10.035-26.872-13.437L120.944,216l6.211-12.422A7.994,7.994,0,0,0,128,200v-8a7.994,7.994,0,0,0-.845-3.578l-4.842-9.683,18.125-12.083a8.052,8.052,0,0,0,1.219-1l14.664-14.665,18.5-6.165,20.744,13.829a7.941,7.941,0,0,0,.86.5l32,16a8,8,0,0,0,8.016-.5L258.422,160H272a8,8,0,0,0,6.656-3.562l12.611-18.917,40.412,13.471,13.1,13.1,7.463,29.85a8.016,8.016,0,0,0,.606,1.638l13.924,27.847-11.587,17.381L319.7,247.9ZM224,224a8,8,0,1,1,8-8A8.009,8.009,0,0,1,224,224Zm64,128a8,8,0,0,0-3.562-6.656l-24-16a8.013,8.013,0,0,0-6.007-1.189L215.208,336H184a8,8,0,0,0-5.657,2.343l-16,16a8,8,0,0,0-1.5,9.235l8,16A8,8,0,0,0,176,384h88a7.994,7.994,0,0,0,3.578-.845l16-8A8,8,0,0,0,288,368Zm-16,11.056L262.111,368H180.944l-3.21-6.42,9.579-9.58H216a8.026,8.026,0,0,0,1.569-.155l36.75-7.351L272,356.281ZM272,408a8,8,0,0,1-8,8h-8a8,8,0,0,1,0-16h8A8,8,0,0,1,272,408Zm40,0a8,8,0,0,1-8,8h-8a8,8,0,0,1,0-16h8A8,8,0,0,1,312,408Zm86.646-20.431.01-.007-32-48A8,8,0,0,0,352,344v5.194L321.753,387l.01.008c-.083.1-.174.2-.253.311a8.006,8.006,0,0,0-1.1,7.208l8,24A8,8,0,0,0,336,424h48a8,8,0,0,0,7.59-5.47l8-24A8,8,0,0,0,398.646,387.569ZM377.052,384H368V370.422ZM352,384h-7.355L352,374.806Zm26.234,24H341.766l-2.666-8h41.8Z" style="fill:url(#linear-gradient)"/></g></svg>
