<?xml version="1.0" encoding="UTF-8"?>
<svg xmlns="http://www.w3.org/2000/svg" xmlns:xlink="http://www.w3.org/1999/xlink" viewBox="0 0 512 512" width="512" height="512"><defs><linearGradient id="linear-gradient" x1="104.342" y1="395.656" x2="379.656" y2="120.342" gradientUnits="userSpaceOnUse"><stop offset="0" stop-color="#41dfd0"/><stop offset="1" stop-color="#ee83ef"/></linearGradient></defs><g id="gradient"><path d="M488,288H475.273a334.293,334.293,0,0,1,14.718-34.095l5.164-10.327A8,8,0,0,0,488,232h-2.536a14.065,14.065,0,0,0-4.126-9.976A47.564,47.564,0,0,0,447.48,208h-4.674L405,177.753A8,8,0,0,0,400,176H376a8,8,0,0,0-6.4,12.8L384,208h-6.111l-14.311-7.155A7.994,7.994,0,0,0,360,200H336a8,8,0,0,0-6.4,12.8L344,232a8,8,0,0,0-6.4,3.2L334,240H318.246l-6.485-25.94A8,8,0,0,0,304,208h-8V184a8,8,0,0,0-8-8H264V160h8a8,8,0,0,0,0-16h-8v-8a8,8,0,0,0-16,0v8h-8a8,8,0,0,0,0,16h8v16H216a8,8,0,0,0-8,8v24H184a8,8,0,0,0-8,8v24H160V216a8,8,0,0,0-8-8,31.984,31.984,0,0,0-53.49-23.69L51.578,160.845a8,8,0,0,0-7.156,14.31l45.26,22.63A31.838,31.838,0,0,0,88,208H72a8,8,0,0,0-7.155,4.422L51.056,240H24a8,8,0,0,0-7.59,10.53L28.9,288H24a8,8,0,0,0,0,16H488a8,8,0,0,0,0-16Zm-96-96h5.193l20,16H404Zm-33.889,24,14.311,7.155A7.994,7.994,0,0,0,376,224h71.48a31.647,31.647,0,0,1,21.124,8H364l-12-16ZM224,192h56v16H224Zm-32,32H297.754l4,16H288a8,8,0,0,0-16,0H256a8,8,0,0,0-16,0H224a8,8,0,0,0-16,0H192Zm-72-32a16.019,16.019,0,0,1,16,16H104A16.019,16.019,0,0,1,120,192ZM76.944,224H144v16H68.944ZM322,256l-6,8H37.766L35.1,256ZM45.766,288,43.1,280H320a8,8,0,0,0,6.4-3.2L348,248H475.059a350.136,350.136,0,0,0-16.791,40ZM128,336H48a8,8,0,0,1,0-16h80a8,8,0,0,1,0,16Zm32,0a8,8,0,0,1,0-16h16a8,8,0,0,1,0,16Zm144,0H208a8,8,0,0,1,0-16h96a8,8,0,0,1,0,16Zm104-8a8,8,0,0,1-8,8H336a8,8,0,0,1,0-16h64A8,8,0,0,1,408,328ZM208,360a8,8,0,0,1-8,8H104a8,8,0,0,1,0-16h96A8,8,0,0,1,208,360Zm56,0a8,8,0,0,1-8,8H240a8,8,0,0,1,0-16h16A8,8,0,0,1,264,360Zm112,0a8,8,0,0,1-8,8H288a8,8,0,0,1,0-16h80A8,8,0,0,1,376,360Z" style="fill:url(#linear-gradient)"/></g></svg>
