<?xml version="1.0" encoding="UTF-8"?>
<svg xmlns="http://www.w3.org/2000/svg" xmlns:xlink="http://www.w3.org/1999/xlink" viewBox="0 0 512 512" width="512" height="512"><defs><linearGradient id="linear-gradient" x1="75.672" y1="486.986" x2="436.328" y2="126.329" gradientUnits="userSpaceOnUse"><stop offset="0" stop-color="#41dfd0"/><stop offset="1" stop-color="#ee83ef"/></linearGradient></defs><g id="gradient"><path d="M431.972,487.335C428.44,444.951,406.954,408.442,371.314,384l34.343-34.342a8,8,0,0,0-2.408-12.968L342.434,309.66a111.081,111.081,0,0,0,10.939-48.281v-6.388a32.018,32.018,0,0,0,2.918-60.167,65.157,65.157,0,0,0-1.9-33.444l27.96-36.516a8,8,0,0,0-1.914-11.52l-11.732-7.821a88.085,88.085,0,0,0-14.945-8.007l9.53-28.59a20,20,0,0,0-15.052-25.937l-24.908-4.981a114,114,0,0,0-134.662,0l-24.908,4.981a20,20,0,0,0-15.052,25.937l9.53,28.59a88.123,88.123,0,0,0-14.945,8.007l-11.732,7.821A8,8,0,0,0,129.753,125l28.989,36.236a57.34,57.34,0,0,0-2.351,33.318A32.008,32.008,0,0,0,160,255.367v6.012a111.108,111.108,0,0,0,10.694,47.78l-61.943,27.53a8,8,0,0,0-2.408,12.968L140.69,384c-35.685,24.473-57.119,60.806-60.662,103.332A8,8,0,0,0,88,496H424a8,8,0,0,0,7.972-8.665ZM248,480V410.256a35.641,35.641,0,0,0,5.657-4.6q1.242-1.242,2.343-2.583,1.1,1.339,2.343,2.583A35.082,35.082,0,0,0,283.313,416h1.374a35.082,35.082,0,0,0,24.97-10.343l1.447-1.447L297.323,480Zm-33.323,0L200.9,404.21l1.447,1.447A35.082,35.082,0,0,0,227.313,416h1.374c1.113,0,2.218-.055,3.313-.157V480Zm24-115.059A89.9,89.9,0,0,0,248,366.294v14.393A19.314,19.314,0,0,1,228.687,400h-1.374a19.187,19.187,0,0,1-13.656-5.657l-5-5,18.3-27.6A89.99,89.99,0,0,0,238.679,364.941Zm59.664,29.4A19.187,19.187,0,0,1,284.687,400h-1.374A19.314,19.314,0,0,1,264,380.687V366.338a90.261,90.261,0,0,0,9.291-1.286s8.378-1.874,11.927-3.033l18.12,27.329Zm5.657-82.1a8,8,0,0,0-8,8v19.258a73.266,73.266,0,0,1-16,7.39V328.247a8,8,0,0,0-16,0v22.017a73.092,73.092,0,0,1-16-.06V328.247a8,8,0,0,0-16,0v18.321a73.245,73.245,0,0,1-16-7.866V320.247a8,8,0,0,0-16,0v4.434A94.618,94.618,0,0,1,176.676,272.8c.081.121.149.249.238.367l13.5,18a43.208,43.208,0,0,0,34.4,17.2,42.721,42.721,0,0,0,30.407-12.6l.435-.435.434.434a42.718,42.718,0,0,0,30.408,12.6,43.2,43.2,0,0,0,34.4-17.2l13.5-18a8,8,0,0,0-6.356-12.8l-14.873-.082c.116-1.486.178-2.977.178-4.465l0-3.009a41.791,41.791,0,0,1,13.445-30.682,8,8,0,0,0,2.578-6.081L328.2,168.167l11.514-.111a49.225,49.225,0,0,1,.873,23.733l-1.831,8.772a65.538,65.538,0,0,0-1.38,13.368v47.45A94.808,94.808,0,0,1,312,326.194v-5.947A8,8,0,0,0,304,312.247ZM312.188,168l1.1,44.98A57.873,57.873,0,0,0,297.4,250.442a36.02,36.02,0,0,0-36.9-8.214l-4.535,1.569-1.391-.6a36.03,36.03,0,0,0-25.423-1.151l-2,.653a36.226,36.226,0,0,0-11.309,6.113c-.093-1.311-.235-2.616-.417-3.916a31.967,31.967,0,0,0,25.252-47.919L274.93,168ZM176.074,264.992c-.044-1.2-.074-2.405-.074-3.613V251.71l16.617-14.061a32.08,32.08,0,0,0,5.78,3.81A41.862,41.862,0,0,1,200,252.93v2.921c0,1.43.067,2.861.175,4.287a14.211,14.211,0,0,1-1.863.149l-15.043.083a8,8,0,0,0-7.121,4.442C176.119,264.871,176.1,264.933,176.074,264.992ZM229,213a16,16,0,1,1-16-16A16.019,16.019,0,0,1,229,213Zm-9.694,54.611,4.917-4.875a20.146,20.146,0,0,1,7.9-4.825l2-.652a20.04,20.04,0,0,1,14.14.64l4.238,1.821a8,8,0,0,0,5.774.211l7.463-2.582a20.056,20.056,0,0,1,20.677,4.713l5.6,5.548a29.747,29.747,0,0,0,20.068,8.661l-3.974,5.3a27.13,27.13,0,0,1-21.6,10.8,26.83,26.83,0,0,1-19.1-7.909l-5.747-5.748A8,8,0,0,0,256,276.37h-.687a8,8,0,0,0-5.656,2.343l-5.748,5.748a26.824,26.824,0,0,1-19.094,7.909,27.13,27.13,0,0,1-21.6-10.8l-3.974-5.3A29.75,29.75,0,0,0,219.306,267.611Zm10.116-82.063A31.909,31.909,0,0,0,200,183.77V168h50.161Zm-55.158,14.57-2.082-8.264a41.323,41.323,0,0,1,1.095-23.8l10.723.11v30.082a8.031,8.031,0,0,0,.08,1.07,31.912,31.912,0,0,0-.874,25.337l-7.206,6.1V214.112A57.322,57.322,0,0,0,174.264,200.118Zm179.109,37.235V213.929q0-1.24.064-2.481a16.017,16.017,0,0,1-.064,25.905ZM163.888,63.866a4,4,0,0,1,3.01-5.187l26.671-5.334A8.019,8.019,0,0,0,196.8,51.9l.4-.3a98,98,0,0,1,117.6,0l.4.3a8.019,8.019,0,0,0,3.23,1.444L345.1,58.679a4,4,0,0,1,3.01,5.187L338.49,92.733a86.858,86.858,0,0,0-53.572,5.66h0a71.317,71.317,0,0,1-57.836,0,86.866,86.866,0,0,0-53.572-5.66Zm-11.719,54.969a70.854,70.854,0,0,1,68.414-5.821,87.35,87.35,0,0,0,70.834,0,70.851,70.851,0,0,1,68.414,5.821l4.624,3.083L341.422,152H171.845L147.7,121.816ZM152,224.38a15.978,15.978,0,0,1,7.832-13.772c.1,1.166.168,2.334.168,3.5v24.1A16,16,0,0,1,152,224.38Zm-4.209,174.149-10.946,21.893a8,8,0,0,0,0,7.156L163.056,480H96.975C101.963,446.487,119.355,418.627,147.791,398.529ZM180.944,480l-28-56,14.211-28.422a8,8,0,0,0-1.5-9.235L125.894,346.58l52.736-23.439a112.631,112.631,0,0,0,14.026,17.075l.2.2a89.678,89.678,0,0,0,19.32,14.676l-26.844,40.485a8,8,0,0,0-1.2,5.852L198.414,480Zm132.642,0,14.285-78.569a8,8,0,0,0-1.2-5.852l-26.516-39.991a89.594,89.594,0,0,0,20.566-15.372,112.631,112.631,0,0,0,13.707-16.607l51.682,22.971-39.763,39.763a8,8,0,0,0-1.5,9.235L359.056,424l-28,56Zm35.358,0,26.211-52.422a8,8,0,0,0,0-7.156l-10.942-21.883c28.414,20.127,45.822,48.047,50.81,81.461ZM297,221.247a10,10,0,1,1-10-10A10,10,0,0,1,297,221.247ZM280,432a8,8,0,1,1-8-8A8,8,0,0,1,280,432Zm0,32a8,8,0,1,1-8-8A8,8,0,0,1,280,464Zm14.227-273.554a8,8,0,1,1,3.546,15.6l-22,5a8,8,0,0,1-3.546-15.6ZM216.845,89.078a7.993,7.993,0,0,0,10.733,3.577l8.018-4.009a27.937,27.937,0,0,0,40.808,0l8.018,4.009a8,8,0,1,0,7.156-14.31l-8.006-4a27.6,27.6,0,0,0,0-9.684l8.006-4a8,8,0,1,0-7.156-14.31L276.4,50.354a27.937,27.937,0,0,0-40.808,0l-8.018-4.009a8,8,0,0,0-7.156,14.31l8.006,4a27.6,27.6,0,0,0,0,9.684l-8.006,4A8,8,0,0,0,216.845,89.078ZM256,57.5a12,12,0,1,1-12,12A12.013,12.013,0,0,1,256,57.5Z" style="fill:url(#linear-gradient)"/></g></svg>
