<?xml version="1.0" encoding="UTF-8"?>
<svg xmlns="http://www.w3.org/2000/svg" xmlns:xlink="http://www.w3.org/1999/xlink" viewBox="0 0 512 512" width="512" height="512"><defs><linearGradient id="linear-gradient" x1="81.635" y1="511.229" x2="462.089" y2="130.775" gradientUnits="userSpaceOnUse"><stop offset="0" stop-color="#41dfd0"/><stop offset="1" stop-color="#ee83ef"/></linearGradient></defs><g id="gradient"><path d="M486.855,442.161a57.109,57.109,0,0,1-11.665-.454A277.074,277.074,0,0,0,496,335.95a7.984,7.984,0,0,0-8-7.95H400a8,8,0,0,0-7.155,4.422l-5.806,11.613c-.226-.02-.454-.035-.685-.035H360V312h88.692a8.233,8.233,0,0,0,6.421-2.924,8.008,8.008,0,0,0,.06-10.074,168.535,168.535,0,0,1-35.953-86.8l-2.343-21.088A8,8,0,0,0,408.926,184H360V168h39.77A8.246,8.246,0,0,0,406,165.3a8.008,8.008,0,0,0,.654-9.733l-1.967-2.95a180.946,180.946,0,0,1-21.087-43.1A8.023,8.023,0,0,0,376,104H360V88h8a8,8,0,0,0,8-8V48a8,8,0,0,0-8-8H336a8,8,0,0,0-8,8V80a8,8,0,0,0,8,8h8v16H328a8.023,8.023,0,0,0-7.6,5.507,180.921,180.921,0,0,1-21.087,43.1l-1.84,2.761A8.238,8.238,0,0,0,296.25,162a8.011,8.011,0,0,0,7.75,6h40v16H320.926a8,8,0,0,0-7.693,5.8l-2.124,7.434a184.789,184.789,0,0,0,0,101.526l2.124,7.434a8,8,0,0,0,7.693,5.8H344v32H320a8,8,0,0,0-5.657,2.343L300.687,360H208V344h79.767a8.234,8.234,0,0,0,6.421-2.924A8.008,8.008,0,0,0,294.247,331a168.543,168.543,0,0,1-35.953-86.8l-2.343-21.088A8,8,0,0,0,248,216H208V192h39.77A8.246,8.246,0,0,0,254,189.3a8.008,8.008,0,0,0,.654-9.733l-1.967-2.95a180.946,180.946,0,0,1-21.087-43.1A8.023,8.023,0,0,0,224,128H208V100.944l14.078-7.039a18.047,18.047,0,0,1,18.042,1.123l.859.572A34.009,34.009,0,0,0,270.6,99.567l11.932-3.978A8,8,0,0,0,288,88V40.238A8.26,8.26,0,0,0,285.3,34a8.008,8.008,0,0,0-9.738-.661l-9.573,6.383a17.96,17.96,0,0,1-19.978,0,34.086,34.086,0,0,0-27.113-4.7l-20.838,5.21,0,.007A8,8,0,0,0,192,48v80H176a8,8,0,0,0-6.86,3.884l-30.82,51.367c-.139.111-54.686,52.194-54.686,52.194-26.728,25.538-42.787,60.523-43.6,97.481Q40,334.462,40,336a7.983,7.983,0,0,0,2.949,6.2L30.371,363.166A8,8,0,0,0,19,361.759a8.22,8.22,0,0,0-1.2,11.307L32,392h0a7.683,7.683,0,0,0-3.582.819,8.048,8.048,0,0,0-3.909,9.99l13.57,36.185a64.777,64.777,0,0,1-10.288-3.775,8.27,8.27,0,0,0-10.877,3.344A8,8,0,0,0,20.571,449.5a81.128,81.128,0,0,0,70.4-.473,81.641,81.641,0,0,0,71.38,0,81.638,81.638,0,0,0,71.382,0,81.627,81.627,0,0,0,71.38,0,81.629,81.629,0,0,0,71.387,0,81.642,81.642,0,0,0,71.257.063,72.857,72.857,0,0,0,35.436,9.184q2.458,0,4.929-.165a8,8,0,1,0-1.27-15.951ZM344,56h16V72H344Zm-10.324,64h36.648a197,197,0,0,0,15.111,32h-66.87A197,197,0,0,0,333.676,120Zm-7.182,174.368a168.628,168.628,0,0,1,0-92.736L326.96,200h74.806l1.552,13.972A184.493,184.493,0,0,0,433.175,296H419.922a169.244,169.244,0,0,1-32.14-73.377,8,8,0,0,0-15.761,2.754A185.341,185.341,0,0,0,400.279,296H385.563a167.729,167.729,0,0,1-28.718-58.1,8,8,0,1,0-15.438,4.2A183.579,183.579,0,0,0,365.915,296H326.96ZM222.779,50.552a18.049,18.049,0,0,1,14.356,2.486A33.9,33.9,0,0,0,272,54.753V82.234l-6.462,2.154a17.892,17.892,0,0,1-15.684-2.1L249,81.716A34.078,34.078,0,0,0,214.922,79.6L208,83.056V54.246ZM379.056,360l-8.814,17.627A25.933,25.933,0,0,1,360,388.521V360Zm-55.743,0H344v32H312V371.313ZM296,376v16H154.246l4-16ZM192,360H152a8,8,0,0,0-7.761,6.06L137.754,392H100.543l43.468-93.466a184.831,184.831,0,0,0,6.173,32.229l2.124,7.435A8,8,0,0,0,160,344h32Zm50.392-114.028A184.494,184.494,0,0,0,272.25,328H259.922a169.244,169.244,0,0,1-32.14-73.377,8,8,0,0,0-15.761,2.754A185.341,185.341,0,0,0,240.279,328H225.563a167.729,167.729,0,0,1-28.718-58.1,8,8,0,1,0-15.438,4.2A183.579,183.579,0,0,0,205.915,328h-39.88l-.467-1.632a168.628,168.628,0,0,1,0-92.736l.467-1.632H240.84ZM180.529,144h37.8a197,197,0,0,0,15.111,32h-72.1ZM192,192v24H160a8,8,0,0,0-7.692,5.8l-2.124,7.435a184.858,184.858,0,0,0-6.059,31.109l-30.177,64.888a110.8,110.8,0,0,1-17.585-40.956L151.729,192ZM95.164,246.421l.35-2.449,14.1-12.875-15.42,25.7C94.353,253.337,94.67,249.874,95.164,246.421ZM78.109,265.154A127.188,127.188,0,0,0,96.645,328H56.259A124.912,124.912,0,0,1,78.109,265.154ZM40.739,376.985,60.53,344h44.69L82.9,392H52Zm411.067,56.036a8.03,8.03,0,0,0-7.835.008,65.4,65.4,0,0,1-63.532.007,8.014,8.014,0,0,0-7.872,0,65.41,65.41,0,0,1-63.5.009,8.012,8.012,0,0,0-7.868-.021,65.4,65.4,0,0,1-63.554,0,8,8,0,0,0-7.823,0,65.408,65.408,0,0,1-63.51.027,8.008,8.008,0,0,0-7.541-.2c-.112.056-.224.115-.333.176a65.4,65.4,0,0,1-63.553,0,8.007,8.007,0,0,0-7.825,0,65,65,0,0,1-31.03,8.277L43.544,408H346.987a41.77,41.77,0,0,0,37.566-23.217L404.944,344h74.937a260.961,260.961,0,0,1-20.136,93.215c-1.5-.677-2.975-1.413-4.419-2.222ZM424,368a24,24,0,1,0,24,24A24.027,24.027,0,0,0,424,368Zm0,32a8,8,0,1,1,8-8A8.009,8.009,0,0,1,424,400Z" style="fill:url(#linear-gradient)"/></g></svg>
