<?xml version="1.0" encoding="UTF-8"?>
<svg xmlns="http://www.w3.org/2000/svg" xmlns:xlink="http://www.w3.org/1999/xlink" viewBox="0 0 512 512" width="512" height="512"><defs><linearGradient id="linear-gradient" x1="88.91" y1="436.227" x2="376.226" y2="148.912" gradientUnits="userSpaceOnUse"><stop offset="0" stop-color="#41dfd0"/><stop offset="1" stop-color="#ee83ef"/></linearGradient></defs><g id="gradient"><path d="M20.089,332.7a81.563,81.563,0,0,0,75.289,2.05,81.63,81.63,0,0,0,71.383,0,81.639,81.639,0,0,0,71.381,0,81.632,81.632,0,0,0,71.379,0,81.611,81.611,0,0,0,71.391,0,81.635,81.635,0,0,0,71.257.064A73.225,73.225,0,0,0,487.636,344h.409A8,8,0,0,0,488,328c-.123,0-.243,0-.366,0a57.181,57.181,0,0,1-17.338-2.706l24.858-49.716A8,8,0,0,0,488,264h-.143L464,264.427V248a8,8,0,0,0-8-8H400c0-1.053-40.845-91.578-40.845-91.578A8,8,0,0,0,352,144H320a8,8,0,0,0-8,8v24H272V160h16a8,8,0,0,0,0-16H272V128h8a8,8,0,0,0,0-16h-8v-8a8,8,0,0,0-16,0v8h-8a8,8,0,0,0,0,16h8v16H240a8,8,0,0,0,0,16h16v16H224a8,8,0,0,0-7.718,5.9L193.868,264.08c-.617-.048-1.239-.08-1.868-.08a23.886,23.886,0,0,0-15.34,5.559l-16.961.3c-.037-.13-.066-.261-.109-.391l-8-24A8,8,0,0,0,144,240H128V152a8,8,0,0,0-8-8H40a8,8,0,0,0-8,8v64a8,8,0,0,0,8,8h72v16H56a8,8,0,0,0-8,8v23.856L39.857,272a8,8,0,0,0-7.549,10.2L44.6,325.223a64.351,64.351,0,0,1-16.69-6.478A8,8,0,0,0,20.089,332.7Zm435.7-14.163a8.028,8.028,0,0,0-7.264.133l-.145.079a65.409,65.409,0,0,1-63.547,0c-.026-.015-.063-.036-.09-.05a8.017,8.017,0,0,0-7.751.049,65.407,65.407,0,0,1-63.546,0,8.018,8.018,0,0,0-7.5-.18c-.112.056-.222.115-.333.177a65.407,65.407,0,0,1-63.553,0,8,8,0,0,0-7.823,0,65.4,65.4,0,0,1-63.553,0c-.111-.061-.225-.122-.337-.178a8.009,8.009,0,0,0-7.161,0c-.113.056-.223.115-.333.177a65.406,65.406,0,0,1-63.552,0,8.153,8.153,0,0,0-1.106-.514,8,8,0,0,0-6.72.512,64.953,64.953,0,0,1-29.732,8.207L50.553,287.813l117.559-2.1c-.072.753-.112,1.515-.112,2.286a24,24,0,1,0,47.788-3.138l16.461-.294a24,24,0,1,0,47.362-.845l195.327-3.489ZM112,270.713,96,271V256h16Zm87.467,14.441a8,8,0,1,1-15.033.268Zm63.463-1.134a8,8,0,1,1-14,.251ZM250.246,240l4-16h15.508l-4,16Zm36-16H376c.145,0,.286-.014.429-.022L383.3,240H282.246ZM367.7,266.147A8,8,0,0,0,368,264v-8h16v9.856ZM352,256v8a8,8,0,0,0,.375,2.421L336,266.713V256Zm-32,0v11l-16,.286V256Zm128,0v8.713L432,265v-9Zm-32,9.285-16,.285V256h16ZM328,160h19.056l8,16H328Zm-97.89,32H362.725l6.857,16H248a8,8,0,0,0-7.761,6.06l-8,32A8,8,0,0,0,240,256h48v11.57l-18.9.338a23.92,23.92,0,0,0-26.911.48l-33.076.591Zm-87.156,78.16L128,270.427V256h10.234ZM48,208V160h64v48Zm16,48H80v15.285l-16,.285ZM17.021,356.089a8,8,0,0,1,10.89-3.068,65.408,65.408,0,0,0,63.556,0,8.008,8.008,0,0,1,6.72-.511,8.147,8.147,0,0,1,1.106.513,65.406,65.406,0,0,0,63.552,0c.11-.061.22-.12.333-.176a8.007,8.007,0,0,1,7.542.2,65.4,65.4,0,0,0,63.509-.027,8,8,0,0,1,7.823,0,65.4,65.4,0,0,0,63.553,0c.111-.061.221-.12.333-.176a8,8,0,0,1,7.559.211,65.41,65.41,0,0,0,63.492-.032,8.02,8.02,0,0,1,7.891.029,65.411,65.411,0,0,0,63.5-.026,8.032,8.032,0,0,1,7.836-.008l3.519,1.972a57.2,57.2,0,0,0,27.9,7.283H488a8,8,0,0,1,.044,16h-.409a73.211,73.211,0,0,1-35.47-9.183,81.647,81.647,0,0,1-71.255-.061,81.612,81.612,0,0,1-71.39,0,81.632,81.632,0,0,1-71.379,0,81.639,81.639,0,0,1-71.381,0,81.637,81.637,0,0,1-71.383,0,81.565,81.565,0,0,1-75.289-2.051A8,8,0,0,1,17.021,356.089ZM88,176h8v16H88v8H72v-8H64V176h8v-8H88Z" style="fill:url(#linear-gradient)"/></g></svg>
