<?xml version="1.0" encoding="UTF-8"?>
<svg xmlns="http://www.w3.org/2000/svg" xmlns:xlink="http://www.w3.org/1999/xlink" viewBox="0 0 512 512" width="512" height="512"><defs><linearGradient id="linear-gradient" x1="84.859" y1="496.173" x2="432.525" y2="148.506" gradientUnits="userSpaceOnUse"><stop offset="0" stop-color="#41dfd0"/><stop offset="1" stop-color="#ee83ef"/></linearGradient></defs><g id="gradient"><path d="M88,496H424a8,8,0,0,0,8-8v-8c0-.222-.009-.443-.028-.665a155.064,155.064,0,0,0-51.1-102.279q5.054-6.006,9.635-12.406a8,8,0,0,0-5.195-12.541A171.619,171.619,0,0,1,303.738,314.7l-2.893-2.411A71.5,71.5,0,0,0,313.6,299.2a152.859,152.859,0,0,0,27.047-59.674,32,32,0,0,0,3.3-62.66,7.938,7.938,0,0,0-1.412-3.7l9.851-17.651c.033-.058.055-.119.086-.177s.054-.085.077-.13l12.067-24.018A31.671,31.671,0,0,0,347.5,87.347,82.237,82.237,0,0,0,194.038,58.266a31.672,31.672,0,0,0-31.972,34.539l2.443,26.767c0,.045.019.087.023.132.008.071.007.142.016.213l2.99,22.1-1.77,2.687a35.89,35.89,0,0,0-2.878,33.983,31.991,31.991,0,0,0,8.463,60.839A152.859,152.859,0,0,0,198.4,299.2a71.465,71.465,0,0,0,12.755,13.09l-2.893,2.412a171.631,171.631,0,0,1-81.577,37.407,8,8,0,0,0-5.2,12.541q4.569,6.4,9.631,12.4A154.8,154.8,0,0,0,80.028,479.335c-.019.222-.028.443-.028.665v8A8,8,0,0,0,88,496ZM276.553,384A51.963,51.963,0,0,1,256,399.369,51.963,51.963,0,0,1,235.447,384ZM240,432a16,16,0,1,1,16,16A16.019,16.019,0,0,1,240,432Zm38.41,22.814a65.05,65.05,0,0,1,12.9,16.191,45.744,45.744,0,0,1-20.826-10.485A32.154,32.154,0,0,0,278.41,454.814Zm-44.815,0a32.131,32.131,0,0,0,7.92,5.7A45.751,45.751,0,0,1,220.7,471,65.332,65.332,0,0,1,233.6,454.818ZM256,468.765A61.734,61.734,0,0,0,270.386,480H241.614A61.734,61.734,0,0,0,256,468.765ZM415.971,480H376V440a8,8,0,0,0-16,0v40H311.989a7.974,7.974,0,0,0-.4-2.53,81.165,81.165,0,0,0-24.84-36.632c.112-.391.22-.783.318-1.179.037-.011.075-.015.112-.026a202.527,202.527,0,0,0,82.911-50.759A138.971,138.971,0,0,1,415.971,480ZM286.688,422.947q-.34-1.15-.761-2.262l11.913-8.4a101.771,101.771,0,0,0,43.371-56.363,187.543,187.543,0,0,0,28.648,9.369A186.617,186.617,0,0,1,286.688,422.947Zm39.87-73.906a85.911,85.911,0,0,1-37.39,49.794c-.126.079-.249.162-.371.247l-12.105,8.537q-.551-.47-1.124-.912a68.029,68.029,0,0,0,26.4-71.812l-.382-1.527A187.553,187.553,0,0,0,326.558,349.041ZM177.916,173.108a19.841,19.841,0,0,1,1.213-19.6l.486-.738,20.283,3.843a128.12,128.12,0,0,1-15.532,12.2Zm5.106-35.98-1.13-8.356L333,157.41l-4.109,7.363ZM352,207.867a16,16,0,0,1-8.673,14.207q.663-7.011.673-14.074V194.032A16,16,0,0,1,352,207.867ZM278.3,33.049a66.572,66.572,0,0,1,52.2,50.23,54.449,54.449,0,0,1-21.928-13.122,70.266,70.266,0,0,0-72.468-16.336L227.467,56.8a54.686,54.686,0,0,1-15.445,2.924A66.579,66.579,0,0,1,278.3,33.049ZM183.067,78.337a15.52,15.52,0,0,1,13.441-3.792c.17.033.342.058.513.089s.353.068.531.092a70.774,70.774,0,0,0,35.128-2.8l8.642-2.978a54.35,54.35,0,0,1,56.055,12.636,70.428,70.428,0,0,0,36.3,18.955l4.884.926.082.016.6.114a15.657,15.657,0,0,1,11.075,22.412l-9.358,18.625L179.9,112.109,178,91.351A15.53,15.53,0,0,1,183.067,78.337ZM160,207.867a16,16,0,0,1,8-13.835V208q0,7.056.673,14.074A16,16,0,0,1,160,207.867ZM184,208V188.281l9.241-6.16a144.232,144.232,0,0,0,21.931-17.979l3.9-3.9L328,180.888V208a136.851,136.851,0,0,1-27.2,81.6,56,56,0,0,1-89.6,0A136.851,136.851,0,0,1,184,208Zm72,120a71.812,71.812,0,0,0,26.482-5.088l3.966,15.863A52.281,52.281,0,0,1,285.3,368H226.7a52.277,52.277,0,0,1-1.147-29.224l3.966-15.864A71.812,71.812,0,0,0,256,328Zm-45.588,5.368-.382,1.528a68.027,68.027,0,0,0,26.4,71.811q-.573.444-1.124.912l-12.1-8.537c-.122-.085-.245-.168-.371-.247a85.911,85.911,0,0,1-37.39-49.794A187.553,187.553,0,0,0,210.412,333.368ZM170.789,355.92a101.771,101.771,0,0,0,43.371,56.363l11.913,8.4q-.422,1.111-.76,2.261A186.579,186.579,0,0,1,142.14,365.29,187.523,187.523,0,0,0,170.789,355.92ZM141.9,388.869a202.5,202.5,0,0,0,83.03,50.8c.1.4.208.794.321,1.188a81.339,81.339,0,0,0-24.844,36.617,7.974,7.974,0,0,0-.4,2.53H152V440a8,8,0,0,0-16,0v40H96.029A138.741,138.741,0,0,1,141.9,388.869Zm145.251-140.62a8,8,0,0,1-3.577,10.732,84.2,84.2,0,0,1-37.467,8.845H240a8,8,0,0,1,0-16h6.111a68.124,68.124,0,0,0,30.311-7.155A8,8,0,0,1,287.155,248.249ZM240,219.826a8,8,0,0,1,16,0v8a8,8,0,0,1,0,16h-8a8,8,0,0,1-8-8Zm-23-.011a9,9,0,1,1,9-9A9,9,0,0,1,217,219.815Zm87-10a9,9,0,1,1-9-9A9,9,0,0,1,304,209.815Zm-31.373-18.752a8,8,0,0,1,4.269-10.477l4.318-1.818a35.076,35.076,0,0,1,27.028-.158,8,8,0,0,1-6.036,14.817,19.187,19.187,0,0,0-14.783.087l-4.319,1.818a7.992,7.992,0,0,1-10.477-4.269Zm-62.833,2.364a8,8,0,0,1-6.036-14.817,35.081,35.081,0,0,1,27.028.158l4.318,1.818a8,8,0,1,1-6.208,14.746l-4.319-1.818A19.192,19.192,0,0,0,209.794,193.427Z" style="fill:url(#linear-gradient)"/></g></svg>
