<?xml version="1.0" encoding="UTF-8"?>
<svg xmlns="http://www.w3.org/2000/svg" xmlns:xlink="http://www.w3.org/1999/xlink" viewBox="0 0 512 512" width="512" height="512"><defs><linearGradient id="linear-gradient" x1="57.122" y1="508.439" x2="412.437" y2="153.123" gradientUnits="userSpaceOnUse"><stop offset="0" stop-color="#41dfd0"/><stop offset="1" stop-color="#ee83ef"/></linearGradient></defs><g id="gradient"><path d="M20.089,470.979a81.565,81.565,0,0,0,75.289,2.051,81.637,81.637,0,0,0,71.383,0,81.639,81.639,0,0,0,71.381,0,81.628,81.628,0,0,0,71.379,0,81.619,81.619,0,0,0,71.39,0,81.647,81.647,0,0,0,71.255.061,73.211,73.211,0,0,0,35.47,9.183h.409a8,8,0,0,0-.044-16h-.366a57.2,57.2,0,0,1-27.9-7.283l-3.519-1.972a8.032,8.032,0,0,0-7.836.008,65.411,65.411,0,0,1-63.5.026,8.018,8.018,0,0,0-7.891-.029,65.477,65.477,0,0,1-52.415,4.9,8.011,8.011,0,0,0-.248-1.419,104.349,104.349,0,0,0-38.513-56.131A32.138,32.138,0,0,0,264,385.012V349.719a126.873,126.873,0,0,0,88.613-65.707l10.9-20.711.494-.36,58.1-29.053A46.576,46.576,0,0,0,448,192a8,8,0,0,0-8-8H345.174L317.2,175.607a141.411,141.411,0,0,0-93.2,4.035V117.416l4.647-1.859a92.456,92.456,0,0,1,57.1-3.875l.317.079a8,8,0,0,0,9.53-10.291,55.936,55.936,0,0,0-37.717-36.112l-30.281-8.652A63.989,63.989,0,0,0,104,80V220c0,60.31,40.656,111.3,96,127.01V384H184a43.045,43.045,0,0,0-40.888,29.47,8.006,8.006,0,0,0,1.1,7.208c.085.118.183.222.273.335a104.2,104.2,0,0,0-21.842,43.7,64.678,64.678,0,0,1-23.35-7.694,8.013,8.013,0,0,0-7.827,0,65.406,65.406,0,0,1-63.555,0,8,8,0,0,0-7.822,13.958Zm286.169-14.267c-.106.047-.215.083-.32.135s-.222.115-.333.176a65.4,65.4,0,0,1-63.553,0,8,8,0,0,0-7.823,0,65.4,65.4,0,0,1-63.509.027,8.009,8.009,0,0,0-7.542-.2c-.113.056-.223.115-.333.176a64.7,64.7,0,0,1-23.723,7.742A88.3,88.3,0,0,1,163.622,424H280a7.954,7.954,0,0,0,3.5-.815A88.441,88.441,0,0,1,306.258,456.712ZM256,400a16.011,16.011,0,0,1,13.853,8H192.062c4.195-5.748,9.035-8,15.938-8h24a8,8,0,0,0,8-8V352c2.682,0,5.348-.1,8-.26V392A8,8,0,0,0,256,400ZM414.956,219.578l-24.5,12.248A87.325,87.325,0,0,0,399.633,200h31.328A30.646,30.646,0,0,1,414.956,219.578Zm-96.508,44.127A93.11,93.11,0,0,0,351.657,200h31.9A72.13,72.13,0,0,1,318.448,263.705ZM312.6,190.933l23.171,6.951a77.168,77.168,0,0,1-27.623,53.577l-14.964,12.471a72.1,72.1,0,0,1-69.018-66.981A125.511,125.511,0,0,1,312.6,190.933ZM253.478,80.743a39.942,39.942,0,0,1,19.509,12.585A108.042,108.042,0,0,0,229.329,98.3,64.086,64.086,0,0,0,232,80c0-1.842-.1-3.662-.25-5.465ZM120,220V80a48,48,0,1,1,89.147,24.724A8,8,0,0,0,208,108.852V192a88.1,88.1,0,0,0,88,88h16a87.667,87.667,0,0,0,26.852-4.195l-.4.755A110.975,110.975,0,0,1,240,336h-4A116.132,116.132,0,0,1,120,220ZM224,351.449V384h-8V350.487C218.641,350.89,221.31,351.205,224,351.449Zm-46.386,49.316a64.82,64.82,0,0,0-4,7.235h-8.854A27.057,27.057,0,0,1,177.614,400.765ZM182,70a14,14,0,1,1-14-14A14,14,0,0,1,182,70Z" style="fill:url(#linear-gradient)"/></g></svg>
