<?xml version="1.0" encoding="UTF-8"?>
<svg xmlns="http://www.w3.org/2000/svg" xmlns:xlink="http://www.w3.org/1999/xlink" viewBox="0 0 512 512" width="512" height="512"><defs><linearGradient id="linear-gradient" x1="141.337" y1="394.778" x2="429.714" y2="106.4" gradientUnits="userSpaceOnUse"><stop offset="0" stop-color="#41dfd0"/><stop offset="1" stop-color="#ee83ef"/></linearGradient></defs><g id="gradient"><path d="M168,280a7.978,7.978,0,0,1-5.657-2.343A35.08,35.08,0,0,1,152,252.687V248a8,8,0,0,1,16,0v4.687a19.185,19.185,0,0,0,5.657,13.656A8,8,0,0,1,168,280Zm37.657-2.344a8,8,0,0,0,0-11.313A19.185,19.185,0,0,1,200,252.687V248a8,8,0,0,0-16,0v4.687a35.08,35.08,0,0,0,10.343,24.97,8,8,0,0,0,11.314,0Zm32,0a8,8,0,0,0,0-11.313A19.185,19.185,0,0,1,232,252.687V248a8,8,0,0,0-16,0v4.687a35.08,35.08,0,0,0,10.343,24.97,8,8,0,0,0,11.314,0ZM96,280a8,8,0,1,0-8-8A8,8,0,0,0,96,280ZM326.387,388.817a8,8,0,0,0,1.305-7.015L314.606,336h6.93A160.951,160.951,0,0,0,411.1,308.883a4.216,4.216,0,0,1,5.667.881A90.782,90.782,0,0,0,488,344a8,8,0,0,0,6.638-12.465l-13.449-19.992a76.331,76.331,0,0,1-8.621-67.679l22.977-65.205A8,8,0,0,0,485.47,168.41a120.769,120.769,0,0,0-72.753,66.944l-1.324,3.086a2.569,2.569,0,0,1-2.365,1.56,212.186,212.186,0,0,1-76.451-14.195L270.815,202.05a149.606,149.606,0,0,1-1.5-57.271l2.577-15.464a8,8,0,0,0-11.469-8.47l-6.276,3.138a167.9,167.9,0,0,0-66.991,60.628L35.786,206.234a18,18,0,0,0-14,24.911L45.938,287.5a32.051,32.051,0,0,0,25.878,19.2l25.473,2.83-16.6,11.07a8,8,0,0,0,2.664,14.457,38.086,38.086,0,0,0,8.432.948H243.02l.008.017a110.973,110.973,0,0,0,42.607,46.294l.438.262A65.97,65.97,0,0,0,320,392,8,8,0,0,0,326.387,388.817ZM124.438,310.656a8,8,0,0,0-3.555-14.607l-47.3-5.256a16.026,16.026,0,0,1-12.939-9.6L36.493,224.842a2,2,0,0,1,1.555-2.768L193.131,199.92a8,8,0,0,0,5.729-3.8,151.921,151.921,0,0,1,54.614-53.62,165.6,165.6,0,0,0,2.765,67.444,8,8,0,0,0,4.889,5.527l65.706,25.271A228.113,228.113,0,0,0,409.028,256,18.552,18.552,0,0,0,426.1,244.744l1.323-3.087A104.759,104.759,0,0,1,474.4,190.521l-16.923,48.025a92.4,92.4,0,0,0,10.436,81.928l3.891,5.785a74.834,74.834,0,0,1-42.546-26.492,20.127,20.127,0,0,0-27.036-4.2A144.994,144.994,0,0,1,321.536,320H304a8,8,0,0,0-7.692,10.2l12.735,44.575a50.229,50.229,0,0,1-14.737-5.919l-.441-.264a95.011,95.011,0,0,1-36.48-39.635l-2.206-4.486A8,8,0,0,0,248,320H110.422Z" style="fill:url(#linear-gradient)"/></g></svg>
