<svg id="Capa_1" enable-background="new 0 0 512 512" height="512" viewBox="0 0 512 512" width="512" xmlns="http://www.w3.org/2000/svg" xmlns:xlink="http://www.w3.org/1999/xlink"><linearGradient id="SVGID_1_" gradientTransform="matrix(1 0 0 -1 0 514)" gradientUnits="userSpaceOnUse" x1="94.343" x2="401.656" y1="96.343" y2="403.656"><stop offset="0" stop-color="#41dfd0"/><stop offset="1" stop-color="#ee83ef"/></linearGradient><g id="gradient"><path d="m495.999 231.995v-23.995c0-4.418-3.581-7.999-7.999-8h-68.129c-16.679-21.183-28.365-45.856-34.189-72.181 4.318-.935 7.061-5.193 6.127-9.511-.796-3.677-4.046-6.303-7.809-6.308h-40c-4.418 0-8 3.582-8 8s3.582 8 8 8h8v123.839c-7.704 2.745-15.821 4.153-24 4.161v-104c0-4.418-3.582-8-8-8h-48c-3.671 0-6.871 2.499-7.761 6.06l-6.485 25.94h-73.754c-4.418 0-8 3.582-8 8v24h-16c-4.418 0-8 3.582-8 8v40h-24v-8c4.418 0 8-3.582 8-8s-3.582-8-8-8h-16c-4.418 0-8 3.582-8 8s3.582 8 8 8v8h-14.7c-11.668.01-22.029-7.458-25.709-18.53-1.089-3.267-4.147-5.471-7.591-5.47h-24v-16h24c4.418 0 8-3.582 8-8v-32c0-4.418-3.582-8-8-8h-32c-4.418 0-8 3.582-8 8v56c-4.418 0-8 3.582-7.999 8.001 0 .378.027.756.08 1.13l2.343 16.4c3.178 22.135 10.831 43.39 22.494 62.469h-16.918c-4.418 0-8 3.582-8 8s3.582 8 8 8h464c4.418 0 8-3.582 8-8s-3.582-8-8-8h-35.056l42.211-84.422c.217-.387.464-.918.636-1.578.21-.805.232-1.508.208-2.005zm-439.999-31.995h-16v-16h16zm424 24h-16v-8h16zm-48 0v-8h16v8zm-32 0v-8h16v8zm-32-96h1.353c5.256 25.821 15.681 50.312 30.647 72h-16c-4.418 0-8 3.582-8 8s3.582 8 8 8v13.245c-4.567 5.638-9.961 10.551-16 14.572zm-89.754 32h33.754v16h-37.754zm-86.246 32h120v16h-120zm-24 32h144v32h-16v-8c0-4.418-3.582-8-8-8s-8 3.582-8 8v8h-16v-8c0-4.418-3.582-8-8-8s-8 3.582-8 8v8h-16v-8c0-4.418-3.582-8-8-8s-8 3.582-8 8v8h-16v-8c0-4.418-3.582-8-8-8s-8 3.582-8 8v8h-16zm-107.933 96c-3.622-5.119-6.914-10.463-9.856-16h392.845l-8 16zm390.989-32h-408.186c-4.11-10.545-6.998-21.526-8.607-32.729l-1.039-7.271h25.434c7.255 14.709 22.241 24.016 38.642 24h230.7c26.254-.065 51.123-11.788 67.88-32h79.176zm-315.056 72c0 4.418-3.582 8-8 8h-80c-4.418 0-8-3.582-8-8s3.582-8 8-8h80c4.418 0 8 3.582 8 8zm24 8c-4.418 0-8-3.582-8-8s3.582-8 8-8h16c4.418 0 8 3.582 8 8s-3.582 8-8 8zm152-8c0 4.418-3.582 8-8 8h-96c-4.418 0-8-3.582-8-8s3.582-8 8-8h96c4.418 0 8 3.582 8 8zm24 8c-4.418 0-8-3.582-8-8s3.582-8 8-8h64c4.418 0 8 3.582 8 8s-3.582 8-8 8zm-232 16h96c4.418 0 8 3.582 8 8s-3.582 8-8 8h-96c-4.418 0-8-3.582-8-8s3.582-8 8-8zm152 0c4.418 0 8 3.582 8 8s-3.582 8-8 8h-16c-4.418 0-8-3.582-8-8s3.582-8 8-8zm32 0h80c4.418 0 8 3.582 8 8s-3.582 8-8 8h-80c-4.418 0-8-3.582-8-8s3.582-8 8-8z" fill="url(#SVGID_1_)"/></g></svg>