<?xml version="1.0" encoding="UTF-8"?>
<svg xmlns="http://www.w3.org/2000/svg" xmlns:xlink="http://www.w3.org/1999/xlink" viewBox="0 0 512 512" width="512" height="512"><defs><linearGradient id="linear-gradient" x1="73.853" y1="392.758" x2="394.448" y2="72.163" gradientUnits="userSpaceOnUse"><stop offset="0" stop-color="#41dfd0"/><stop offset="1" stop-color="#ee83ef"/></linearGradient></defs><g id="gradient"><path d="M495.823,217.422l-11.436-53.5a8,8,0,0,0-9.5-6.151l-22.69,4.85a8,8,0,0,0-5.881-5.045,46.8,46.8,0,0,0-35.281,6.851l-26.617,5.69c-9.412,2.011-18.96-.514-24.909-6.6C334.065,137.491,294.1,126.486,255.2,134.8l-213,45.534a32.882,32.882,0,0,0-19.629,12.378,27.107,27.107,0,0,0-5.053,22.058L48.966,361.9C51.784,375.081,64.256,384,78.4,384a34.233,34.233,0,0,0,7.167-.763l213-45.533c38.893-8.314,70.871-34.7,83.455-68.857,2.942-7.982,10.618-14.192,20.035-16.2l26.619-5.691a46.787,46.787,0,0,0,35-8.173,8,8,0,0,0,3.3-7.008l22.69-4.85A8,8,0,0,0,495.823,217.422ZM37,229.385A11.989,11.989,0,0,1,51.625,238a7.969,7.969,0,0,0,8.087,6c.1,0,.191-.009.288-.009a7.009,7.009,0,0,1,6.324,4H40.979Zm258.229,92.669-213,45.533c-8.27,1.767-16.172-2.284-17.615-9.033l-1.419-6.642a81.655,81.655,0,0,0,38.947-8.2,81.073,81.073,0,0,0,51.413,6.747,8,8,0,1,0-3.106-15.695,65.08,65.08,0,0,1-44.395-7.063,8,8,0,0,0-7.823,0,65.379,65.379,0,0,1-38.514,7.946l-3.692-17.269a80.423,80.423,0,0,0,46.123-7.619,81.626,81.626,0,0,0,71.375,0,81.619,81.619,0,0,0,71.387,0,82.022,82.022,0,0,0,71.642.064q2.137,1.186,4.345,2.225A107.127,107.127,0,0,1,295.229,322.054ZM203.056,288l-6.841,13.682a64.425,64.425,0,0,1-18.714-6.9,8.005,8.005,0,0,0-7.915-.025,65.479,65.479,0,0,1-55.381,3.818c-.062-.145-.119-.291-.19-.434L108.944,288Zm-39.63-16a74.4,74.4,0,0,1-6.381-8h13.074l9.667,8Zm-14.749-24A73.926,73.926,0,0,1,144,222.059v-.434L166.606,248Zm-19.8-13.311A88.97,88.97,0,0,0,143.106,272H112.454A68.608,68.608,0,0,1,128.874,234.689Zm301.315-3.733a7.981,7.981,0,0,0-3.29.012l-28.18,6.024c-14.734,3.15-26.882,13.235-31.7,26.32-5.6,15.194-15.8,28.592-29.05,38.95a57.344,57.344,0,0,1-13.854-5.544l-3.519-1.973a8.024,8.024,0,0,0-7.853.018,65.807,65.807,0,0,1-63.833.031,8.019,8.019,0,0,0-7.934-.034,64.89,64.89,0,0,1-27.45,8.082l9.632-19.264A8,8,0,0,0,216,272H204.881l-14.139-11.7a8.111,8.111,0,0,0,.527-.956,8,8,0,0,0-1.195-8.549l-48-56A8,8,0,0,0,128,200v12.686l-7.03,7.03A84.609,84.609,0,0,0,96.378,272H96a8,8,0,0,0-7.155,11.577l6.374,12.749a64.611,64.611,0,0,1-42.8,5.172L44.4,264H74.146a8,8,0,0,0,7.543-5.335A23.014,23.014,0,0,0,65.1,228.57a27.946,27.946,0,0,0-31.445-14.83l-.495-2.313a11.34,11.34,0,0,1,2.249-9.172,16.915,16.915,0,0,1,10.133-6.274l213-45.534A107.493,107.493,0,0,1,281,148.063c25.81,0,50.261,9.448,67.073,26.641,9.748,9.971,24.956,14.207,39.694,11.059l28.179-6.025a7.979,7.979,0,0,0,3.007-1.335,31.175,31.175,0,0,1,19.117-5.75l.238,1.11v.013l11.435,53.487v.008l0,.01.237,1.108A31.234,31.234,0,0,1,430.189,230.956ZM463.722,216.1l-8.092-37.855,14.782-3.16,8.093,37.855ZM201.787,185.448a8,8,0,0,1-6.15,9.5l-22.822,4.879a8,8,0,1,1-3.345-15.646l22.821-4.879A8,8,0,0,1,201.787,185.448Zm31.885,1.365-7.608,1.626a8,8,0,1,1-3.343-15.646l7.607-1.626a8,8,0,0,1,3.344,15.646ZM334.1,228.57a28,28,0,0,0-46.149-6.025,24,24,0,1,0-26.934,25.263c-.007.231-.018.46-.018.692a25.276,25.276,0,0,0,2.459,10.933A8,8,0,0,0,270.685,264h72.461a8,8,0,0,0,7.543-5.335,23.014,23.014,0,0,0-16.588-30.1ZM264,232a8,8,0,1,1,6.757-3.714c-.067.1-.119.212-.18.318a25.621,25.621,0,0,0-2.422,2.212A7.946,7.946,0,0,1,264,232Zm13.013,16a9.5,9.5,0,0,1,12.1-8.633,8,8,0,0,0,9.267-3.957A12,12,0,0,1,320.625,238a7.957,7.957,0,0,0,8.087,6A7.051,7.051,0,0,1,335.324,248Z" style="fill:url(#linear-gradient)"/></g></svg>
