<?xml version="1.0" encoding="UTF-8"?>
<svg xmlns="http://www.w3.org/2000/svg" xmlns:xlink="http://www.w3.org/1999/xlink" viewBox="0 0 512 512" width="512" height="512"><defs><linearGradient id="linear-gradient" x1="58.343" y1="429.657" x2="361.657" y2="126.343" gradientUnits="userSpaceOnUse"><stop offset="0" stop-color="#41dfd0"/><stop offset="1" stop-color="#ee83ef"/></linearGradient></defs><g id="gradient"><path d="M488,376H461.944a94.77,94.77,0,0,1,12.778-77.661l19.934-29.9A8,8,0,0,0,488,256H440V224a8,8,0,0,0-8-8H408V176a8,8,0,0,0-8-8H288a8,8,0,0,0-8,8v40H224a8,8,0,0,0-8,8v40h-8a8,8,0,0,0-8,8v40H184V272a8,8,0,0,0-8-8h-8V240a8,8,0,0,0-8-8V208a8,8,0,0,0-8-8h-8V184h24a8,8,0,0,0,0-16H128a8,8,0,0,0,0,16v16H112V144a8,8,0,0,0-8-8V120A32.058,32.058,0,0,0,80,89.012V88A32.036,32.036,0,0,0,48,56H24a8,8,0,0,0-8,8v8a32.058,32.058,0,0,0,24,30.988V104a24.041,24.041,0,0,0,16,22.629V136a8,8,0,0,0-8,8v88H40a8,8,0,0,0-8,8v24a8,8,0,0,0-8,8v40a8,8,0,0,0-7.491,10.809L36.456,376H24a8,8,0,0,0,0,16H488a8,8,0,0,0,0-16Zm-26.59-86.536A111.019,111.019,0,0,0,442.86,344H41.544l-6-16H300.961a31.967,31.967,0,0,0,24.3-11.174l33.333-38.889A16.98,16.98,0,0,1,371.5,272H473.052ZM296,232h32v32H296Zm80,0v24h-4.5a32.948,32.948,0,0,0-21.531,8H344V232Zm48,24H392V232h32Zm-32-40H360V184h32Zm-96-32h48v32H296Zm-64,48h48v32H232Zm-16,48H335.749l-22.64,26.413A15.983,15.983,0,0,1,300.961,312H216Zm-72-64v16H112V216ZM64,152H96v16H64Zm0-40a8.009,8.009,0,0,1-8-8V96a8,8,0,0,0-8-8A16.019,16.019,0,0,1,32,72H48A16.019,16.019,0,0,1,64,88v8a8,8,0,0,0,8,8,16.019,16.019,0,0,1,16,16v16H72V120A8,8,0,0,0,64,112Zm0,72H96v48H64ZM48,248H152v16H48Zm-8,32H168v8H144a8,8,0,0,0,0,16h24v8H40Zm13.544,96-6-16H442.99a111.676,111.676,0,0,0,2.463,16ZM80,296a8,8,0,0,1-8,8H64a8,8,0,0,1,0-16h8A8,8,0,0,1,80,296Zm40,0a8,8,0,0,1-8,8h-8a8,8,0,0,1,0-16h8A8,8,0,0,1,120,296Zm16,120a8,8,0,0,1-8,8H56a8,8,0,0,1,0-16h72A8,8,0,0,1,136,416Zm24,8a8,8,0,0,1,0-16h16a8,8,0,0,1,0,16Zm144-8a8,8,0,0,1-8,8H208a8,8,0,0,1,0-16h88A8,8,0,0,1,304,416Zm24,8a8,8,0,0,1,0-16h16a8,8,0,0,1,0,16Zm32-8a8,8,0,0,1,8-8h24a8,8,0,0,1,0,16H368A8,8,0,0,1,360,416Zm56,8a8,8,0,0,1,0-16h56a8,8,0,0,1,0,16ZM112,440H232a8,8,0,0,1,0,16H112a8,8,0,0,1,0-16Zm152,0h72a8,8,0,0,1,0,16H264a8,8,0,0,1,0-16Zm96,8a8,8,0,0,1,8-8h64a8,8,0,0,1,0,16H368A8,8,0,0,1,360,448Z" style="fill:url(#linear-gradient)"/></g></svg>
