<svg height="512" viewBox="0 0 512 512" width="512" xmlns="http://www.w3.org/2000/svg" xmlns:xlink="http://www.w3.org/1999/xlink"><linearGradient id="linear-gradient" gradientUnits="userSpaceOnUse" x1="96.343" x2="387.657" y1="435.657" y2="144.343"><stop offset="0" stop-color="#41dfd0"/><stop offset="1" stop-color="#ee83ef"/></linearGradient><g id="gradient"><path d="m384 392a8 8 0 0 1 0-16h80a8 8 0 0 1 0 16zm-32 0a8 8 0 0 0 0-16h-16a8 8 0 0 0 0 16zm-48-16h-96a8 8 0 0 0 0 16h96a8 8 0 0 0 0-16zm-128 0h-64a8 8 0 0 0 0 16h64a8 8 0 0 0 0-16zm128 40a8 8 0 0 0 8 8h96a8 8 0 0 0 0-16h-96a8 8 0 0 0 -8 8zm-48-8a8 8 0 0 0 0 16h16a8 8 0 0 0 0-16zm-120 8a8 8 0 0 0 8 8h80a8 8 0 0 0 0-16h-80a8 8 0 0 0 -8 8zm144-192h8a8 8 0 0 0 0-16h-8a8 8 0 0 0 0 16zm-40 0h8a8 8 0 0 0 0-16h-8a8 8 0 0 0 0 16zm-40 0h8a8 8 0 0 0 0-16h-8a8 8 0 0 0 0 16zm-40 0h8a8 8 0 0 0 0-16h-8a8 8 0 0 0 0 16zm292.944 120h35.056a8 8 0 0 1 0 16h-464a8 8 0 0 1 0-16h35.056s-42.472-85.009-42.556-85.249c-.029-.067-.5-34.751-.5-34.751a8 8 0 0 1 8-8h50.982l5.111-33.217a8 8 0 0 1 7.907-6.783v-24a8 8 0 0 1 8-8h24v-56a8 8 0 0 1 8-8h16.286a51.933 51.933 0 0 1 49.332 35.556l9.482 28.444h116.9a8 8 0 0 1 8 8v24a8 8 0 0 1 7.646 5.647l30.263 98.353h18.091v-24a8 8 0 0 1 8-8h96a8 8 0 0 1 7.155 11.578zm22.112-80h-11.056v16h3.056zm-27.056 16v-16h-16v16zm-48 0h16v-16h-16zm-72-8v8h21.168l-7.384-24h-211.442a72.247 72.247 0 0 0 21.658 16.45v-.45a8 8 0 0 1 16 0v6.172a71.4 71.4 0 0 0 16 1.828v-8a8 8 0 0 1 16 0v8h16v-8a8 8 0 0 1 16 0v8h16v-8a8 8 0 0 1 16 0v8h16v-8a8 8 0 0 1 16 0v8h16v-8a8 8 0 0 1 16 0zm-216-40h-16v16h16zm200-72h-16v16h16zm-32 16v-16h-16v16zm-32 0v-16h-16v16zm-32 0v-16h-16v16zm-32 0v-16h-16v16zm-32 0v-16h-16v16zm-16-32h50.233l-5.333-16h-44.9zm0-48v16h38.222a35.948 35.948 0 0 0 -29.936-16zm-32 80h16v-16h-16zm-12.829 40h36.829a8 8 0 0 1 0 16v8h208.861l-4.923-16h-11.938a8 8 0 0 1 0-16h7.015l-4.923-16h-227.229zm-27.171 16v16h16v-16zm-32 0v16h16v-16zm4.944 32 24 48h390.112l8-16h-275.056a88.458 88.458 0 0 1 -67.88-32zm398.112 80 8-16h-374.112l8 16zm-331.056-48a8 8 0 1 0 -8-8 8 8 0 0 0 8 8zm-32 0a8 8 0 1 0 -8-8 8 8 0 0 0 8 8z" fill="url(#linear-gradient)"/></g></svg>