<?xml version="1.0" encoding="UTF-8"?>
<svg xmlns="http://www.w3.org/2000/svg" xmlns:xlink="http://www.w3.org/1999/xlink" viewBox="0 0 512 512" width="512" height="512"><defs><linearGradient id="linear-gradient" x1="105.843" y1="415.157" x2="450.157" y2="70.843" gradientUnits="userSpaceOnUse"><stop offset="0" stop-color="#41dfd0"/><stop offset="1" stop-color="#ee83ef"/></linearGradient></defs><g id="gradient"><path d="M104,357a5,5,0,1,1-5-5A5,5,0,0,1,104,357ZM90,375a5,5,0,1,0-5,5A5,5,0,0,0,90,375Zm147,43a5,5,0,1,0-5-5A5,5,0,0,0,237,418Zm27-21a5,5,0,1,0-5,5A5,5,0,0,0,264,397Zm-27-13a5,5,0,1,0-5-5A5,5,0,0,0,237,384Zm-21.155,3.569L212.158,406l3.687,18.431a8,8,0,0,1-10.375,9.158l-20.856-6.952-2.841,1.421A56.577,56.577,0,0,1,156.6,434H148a55.915,55.915,0,0,1-39.8-16.485l-9.858-9.858a8,8,0,0,1,0-11.314l9.857-9.858a56.287,56.287,0,0,1,77.91-1.621l19.36-6.453a8,8,0,0,1,10.375,9.158Zm-19.69,16.862,1.3-6.482-10.922,3.64a8,8,0,0,1-8.187-1.933l-1.858-1.858a40.286,40.286,0,0,0-56.971,0l-4.2,4.2,4.2,4.2A40.018,40.018,0,0,0,148,418h8.6a40.49,40.49,0,0,0,18.015-4.253l5.805-2.9a7.992,7.992,0,0,1,6.108-.434l10.922,3.64-1.3-6.482A8.006,8.006,0,0,1,196.155,404.431ZM141,396a6,6,0,1,0,6,6A6,6,0,0,0,141,396ZM496,256a96.108,96.108,0,0,1-96,96H238.929a277.453,277.453,0,0,1-169.56-58.055L53.657,309.657A8,8,0,0,1,48,312H24a8,8,0,0,1-7.59-10.53L31.567,256,16.41,210.53A8,8,0,0,1,23.764,200l24-.71a7.948,7.948,0,0,1,5.975,2.423l15.766,16.232A277.458,277.458,0,0,1,238.929,160h29.324l37.6-45.122A8,8,0,0,1,312,112h32V60a28.032,28.032,0,0,1,28-28h36a8,8,0,0,1,8,8V72a8,8,0,0,1-8,8H392v32a8,8,0,0,1,8,8v40A96.108,96.108,0,0,1,496,256ZM360,112h16V72a8,8,0,0,1,8-8h16V48H372a12.013,12.013,0,0,0-12,12Zm-70.92,48H384V128H315.747ZM34.992,215.678l8.4,25.2q6.644-6.625,13.7-12.748L44.716,215.39ZM56.947,283.74q-6.968-6.072-13.553-12.622L35.1,296h9.587ZM480,256a80.091,80.091,0,0,0-80-80H238.929A261.417,261.417,0,0,0,50.953,256a261.417,261.417,0,0,0,187.976,80H400A80.091,80.091,0,0,0,480,256Zm-160,0a48,48,0,1,1-48-48A48.054,48.054,0,0,1,320,256Zm-79.7-4.318a64.985,64.985,0,0,0,11.167-4.936,8.011,8.011,0,0,1,7.827,0,64.69,64.69,0,0,0,44.62,7.011,31.992,31.992,0,0,0-63.614-2.076Zm60.216,18.811a80.308,80.308,0,0,1-45.138-7.735,81.059,81.059,0,0,1-13.1,5.071,31.981,31.981,0,0,0,58.239,2.664ZM448,256a48,48,0,1,1-48-48A48.054,48.054,0,0,1,448,256Zm-79.969-1.206a65.2,65.2,0,0,0,26.2-8.049,8.007,8.007,0,0,1,7.823,0,64.983,64.983,0,0,0,29.923,8.265,31.991,31.991,0,0,0-63.944-.216Zm60.3,16.055a80.98,80.98,0,0,1-30.193-8.093,81.387,81.387,0,0,1-26.639,7.769,31.977,31.977,0,0,0,56.832.324ZM226.343,444.343l9.857-9.858a56.287,56.287,0,0,1,77.91-1.621l19.36-6.453a8,8,0,0,1,10.375,9.158L340.158,454l3.687,18.431a8,8,0,0,1-10.375,9.158l-20.856-6.952-2.841,1.421A56.577,56.577,0,0,1,284.6,482H276a55.915,55.915,0,0,1-39.8-16.485l-9.858-9.858A8,8,0,0,1,226.343,444.343ZM243.313,450l4.2,4.2A40.018,40.018,0,0,0,276,466h8.6a40.49,40.49,0,0,0,18.015-4.253l5.805-2.9a8,8,0,0,1,6.108-.434l10.922,3.64-1.3-6.482a8.006,8.006,0,0,1,0-3.138l1.3-6.482-10.922,3.64a8,8,0,0,1-8.187-1.933l-1.858-1.858a40.286,40.286,0,0,0-56.971,0ZM269,456a6,6,0,1,0-6-6A6,6,0,0,0,269,456ZM176,192h-8a8,8,0,0,0,0,16h8a8,8,0,0,0,0-16Zm64,8a8,8,0,0,0-8-8H208a8,8,0,0,0,0,16h24A8,8,0,0,0,240,200Z" style="fill:url(#linear-gradient)"/></g></svg>
