<?xml version="1.0" encoding="UTF-8"?>
<svg xmlns="http://www.w3.org/2000/svg" xmlns:xlink="http://www.w3.org/1999/xlink" viewBox="0 0 512 512" width="512" height="512"><defs><linearGradient id="linear-gradient" x1="102.874" y1="373.665" x2="376.219" y2="100.32" gradientUnits="userSpaceOnUse"><stop offset="0" stop-color="#41dfd0"/><stop offset="1" stop-color="#ee83ef"/></linearGradient></defs><g id="gradient"><path d="M432,240H265.178A132,132,0,0,1,137.6,141.882a97.593,97.593,0,0,0,57.583-45.331l11.761-20.582A8,8,0,0,0,200,64H179.1A97.682,97.682,0,0,0,112,90.727,97.682,97.682,0,0,0,44.9,64H24a8,8,0,0,0-6.946,11.969L28.815,96.551a97.587,97.587,0,0,0,58.5,45.59L74.34,265.35A152.013,152.013,0,0,0,141.2,407.745c.067.045.135.086.2.13l.07.044A96.462,96.462,0,0,0,194.881,424h18.587l-12.779,28.751a8,8,0,0,0,9.841,10.839l26.172-8.725A137.9,137.9,0,0,0,288.078,424H408a88.1,88.1,0,0,0,88-88V304A64.072,64.072,0,0,0,432,240ZM221.043,408H210.438a79.481,79.481,0,0,1,13.278-5.04Q222.351,405.464,221.043,408Zm13.777-23.423a95.459,95.459,0,0,0-46.97,18.535l-4.421,3.317a7.915,7.915,0,0,0-.749.646,80.317,80.317,0,0,1-23.946-7.622A94.448,94.448,0,0,1,220.911,376H240.8Q237.718,380.222,234.82,384.577Zm-3.177,55.109-8.966,2.989,6.837-15.383a227.124,227.124,0,0,1,47.128-68.62,8,8,0,1,0-11.313-11.315Q259.2,353.489,253.549,360H220.911a110.477,110.477,0,0,0-76.233,30.648A136.018,136.018,0,0,1,90.252,267.025l13.7-130.187a8,8,0,0,0-6.387-8.683A81.6,81.6,0,0,1,42.707,88.613L37.786,80H44.9a81.684,81.684,0,0,1,61.109,27.524,8,8,0,0,0,11.978,0A81.684,81.684,0,0,1,179.1,80h7.116l-4.921,8.613a81.6,81.6,0,0,1-54.862,39.542,8,8,0,0,0-6.254,9.52l.286,1.335A148,148,0,0,0,265.178,256H432a48.054,48.054,0,0,1,48,48H347.783a27.891,27.891,0,0,0-26.7,19.577L310.158,358.2c-.016.05-.032.1-.047.151A122.031,122.031,0,0,1,231.643,439.686ZM325.333,408H302.5a137.8,137.8,0,0,0,22.945-45.058l10.9-34.552A11.954,11.954,0,0,1,347.783,320h35.894A104.551,104.551,0,0,1,342.4,395.2Zm74.386-88h39.958A104.551,104.551,0,0,1,398.4,395.2L381.333,408H352A120.638,120.638,0,0,0,399.719,320ZM408,408a120.638,120.638,0,0,0,47.719-88H480v16A72.081,72.081,0,0,1,408,408ZM368,277a11,11,0,1,1,11,11A11,11,0,0,1,368,277ZM268,181a7,7,0,1,1,7,7A7,7,0,0,1,268,181Zm131-3a7,7,0,1,1-7,7A7,7,0,0,1,399,178Zm27-11a7,7,0,1,1,7,7A7,7,0,0,1,426,167Zm13,16a8,8,0,1,1-8,8A8,8,0,0,1,439,183ZM248,200a8,8,0,1,1,8,8A8,8,0,0,1,248,200Zm-16-39a7,7,0,1,1,7,7A7,7,0,0,1,232,161Zm42.343-3.344a8,8,0,0,1,0-11.313l10.381-10.38A34.793,34.793,0,0,1,336,138.3a34.794,34.794,0,0,1,51.277-2.34l10.38,10.379a8,8,0,0,1-11.314,11.314l-10.38-10.38A18.724,18.724,0,0,0,344,160.516V176a8,8,0,0,1-16,0V160.516a18.724,18.724,0,0,0-31.962-13.24l-10.381,10.381A8,8,0,0,1,274.343,157.656ZM344,200v16a8,8,0,0,1-16,0V200a8,8,0,0,1,16,0Z" style="fill:url(#linear-gradient)"/></g></svg>
